<svg id="Layer_1" data-name="Layer 1" xmlns="http://www.w3.org/2000/svg" xmlns:xlink="http://www.w3.org/1999/xlink" viewBox="0 0 561.42 403.35"><defs><style>.cls-1,.cls-17,.cls-18{fill:none;}.cls-2{fill:#353635;}.cls-3{clip-path:url(#clip-path);}.cls-4{opacity:0.6;}.cls-5{fill:#e0e1e2;}.cls-6{fill:#444f53;}.cls-7{fill:#f58d89;}.cls-8{fill:#f0f4f7;}.cls-9{fill:#d7dce0;}.cls-10{fill:#c9ced4;}.cls-11{fill:#e1e5e8;}.cls-12{fill:#8bb1de;}.cls-13{fill:#568cc9;}.cls-14{opacity:0.4;}.cls-15{fill:#213d43;}.cls-16{fill:#627d7c;}.cls-17{stroke:#25302e;stroke-width:1.46px;}.cls-17,.cls-18{stroke-miterlimit:10;}.cls-18{stroke:#f0eeed;stroke-width:0.97px;}.cls-19{fill:#475153;}.cls-20{clip-path:url(#clip-path-2);}.cls-21{fill:#5f4c35;}.cls-22{fill:#5f55a1;}.cls-23{fill:#fee1c6;}.cls-24{fill:#d18b52;}.cls-25{fill:#f79452;}.cls-25,.cls-34,.cls-43{opacity:0.3;}.cls-26{fill:#483622;}.cls-27{fill:#f79e86;}.cls-28{fill:#4d3c28;}.cls-29{fill:#1e150b;}.cls-30{fill:#32afd5;}.cls-31{fill:#d37793;}.cls-32{fill:#eb94b3;}.cls-33{fill:#f9d82e;}.cls-35{fill:#8e1c1c;}.cls-36{fill:#35496c;}.cls-37{fill:#112133;}.cls-38{fill:#f4caa9;opacity:0.71;}.cls-39{fill:#fff;}.cls-40{fill:#c2c1c1;}.cls-41{fill:#f39b80;}.cls-42{fill:#cddbec;}.cls-43,.cls-44{fill:#6a8093;}.cls-45{fill:#e5856e;}.cls-46{fill:#cc5f64;}.cls-47{fill:#e48082;}.cls-48{fill:#4d938a;}.cls-49{fill:#73b7b2;}</style><clipPath id="clip-path"><rect class="cls-1" x="5.54" y="2.82" width="549.87" height="400.74"/></clipPath><clipPath id="clip-path-2"><rect class="cls-1" x="-16.82" y="94.14" width="506.66" height="308.45"/></clipPath></defs><title>ep1</title><rect class="cls-2" x="-0.29" y="-2.36" width="565.89" height="405.84"/><g class="cls-3"><g class="cls-4"><path class="cls-5" d="M144.3,161.82s-7.25-70.1,56.1-117.26c1.75-1.3,45.53-28.92,89.87-28.92,32.65,0,73,14.31,84.49,24.41,0,0,69.13,40.1,59.51,121.86L418.9,192.18l-42.25,11.76-172.83-.05-42.24-13.47Z"/><path class="cls-6" d="M189.64,109.15S184.57,68.39,228.85,41c1.22-.76,5.15-2.89,6.44-3.64a115.64,115.64,0,0,1,56-15.08c19.75,0,42.16,4.89,54.4,12.74,0,0,53.43,26.68,46.7,74.21L367.25,154h-149Z"/><ellipse class="cls-7" cx="254.71" cy="69.68" rx="8.99" ry="12.93"/><ellipse class="cls-7" cx="335.49" cy="70.82" rx="8.78" ry="13.33"/><path class="cls-8" d="M279,166.39H427.75C462.23,201.1,532.28,289,533.29,301.07c1.74,20.68,48,205.13,39.75,227.53C542.11,612.76,467.62,689.46,459,689.46c-114.76,0-161.21,2.11-180,.63C280.7,508.39,273.95,341.23,279,166.39Z"/><path class="cls-9" d="M281.66,166.49H137C103.45,201.2,35.33,289.08,34.34,301.17,32.65,321.84-12.32,506.3-4.32,528.7,25.76,612.87,98.21,689.56,106.61,689.56c111.61,0,154.84,2,173.08.55C278,508.41,286.58,341.33,281.66,166.49Z"/><path class="cls-10" d="M9.66,240.93c3.27-9.13,7-19.47,10.69-29.54q-7.85-4.45-15.76-8.84c-4.91,13.43-10.4,28.5-15,41.23-11.28,31.47,5.64,45.78,5.64,45.78l53.15,43.08,8.11-12.52L15.3,286.71S-1.62,272.41,9.66,240.93Z"/><path class="cls-11" d="M32.46,178.32a22.33,22.33,0,0,1,10.07-11.77h-9.3a22.19,22.19,0,0,0-20.79,14.63c-2.2,6-4.92,13.4-7.84,21.38q7.9,4.39,15.76,8.84C24.83,199.09,29.21,187.17,32.46,178.32Z"/><path class="cls-12" d="M156,166.55H42.53a22.33,22.33,0,0,0-10.07,11.77c-3.25,8.84-7.63,20.76-12.11,33.07,26,14.76,51.69,30,77.14,45.49Z"/><path class="cls-13" d="M20.35,211.4c-3.67,10.07-7.42,20.41-10.69,29.54-11.28,31.47,5.64,45.78,5.64,45.78l41.24,33.42,41-63.25C72,241.39,46.38,226.16,20.35,211.4Z"/><path class="cls-11" d="M555.26,182.28a21.84,21.84,0,0,0-20.44-14.63h-9.15a22.23,22.23,0,0,1,9.9,11.77c3.55,9.83,8.47,23.45,13.38,37.2l15.44-9C561,198.15,557.78,189.26,555.26,182.28Z"/><path class="cls-10" d="M564.39,207.63l-15.44,9c3.13,8.74,6.25,17.53,9,25.42,11.09,31.47-5.54,45.78-5.54,45.78L511.9,321.23l8,12.52,52.26-43.08s16.63-14.31,5.54-45.78C573.63,233.4,568.84,220,564.39,207.63Z"/><path class="cls-12" d="M535.57,179.42a22.23,22.23,0,0,0-9.9-11.77H414.12l59.32,93.17q37.68-22.22,75.52-44.2C544,202.87,539.12,189.25,535.57,179.42Z"/><path class="cls-13" d="M549,216.62q-37.82,22-75.52,44.2l38.46,60.41,40.54-33.42S569.08,273.5,558,242C555.21,234.14,552.08,225.36,549,216.62Z"/><g class="cls-14"><path class="cls-15" d="M282.09,201.49H194a20.8,20.8,0,0,0-20.62,18.07l-11.82,89.1a20.8,20.8,0,0,0,20.62,23.54H284.5C284.91,288.75,284.53,245.21,282.09,201.49Z"/><path class="cls-16" d="M406.62,308l-14.55-89.1a20.8,20.8,0,0,0-20.53-17.45H282.09c2.44,43.72,2.83,87.25,2.42,130.71H386.09A20.8,20.8,0,0,0,406.62,308Z"/><path class="cls-17" d="M406.62,308l-14.55-89.1a20.8,20.8,0,0,0-20.53-17.45H194a20.8,20.8,0,0,0-20.62,18.07l-11.82,89.1a20.8,20.8,0,0,0,20.62,23.54H386.09A20.8,20.8,0,0,0,406.62,308Z"/><line class="cls-18" x1="195.83" y1="224.17" x2="251.85" y2="224.17"/><line class="cls-18" x1="195.83" y1="233.5" x2="249.18" y2="233.5"/><line class="cls-18" x1="195.83" y1="242.84" x2="201.16" y2="242.84"/><line class="cls-18" x1="203.83" y1="242.84" x2="209.17" y2="242.84"/><line class="cls-18" x1="211.83" y1="242.84" x2="217.17" y2="242.84"/></g><path class="cls-19" d="M572.21,290.22l25.89,160.4a46.26,46.26,0,0,1-2.24,23.31,151,151,0,0,1-23.94,30.46q-4.79,4.78-10,9.26c-27.16,24.84-75.29,33.85-104.52,5-1.72-1.8-1.72-7.21,0-10.81,8.59-18,22.78-27.55,36.1-37.85,4.78-3.83,10.94-6.73,15.47-10.81,9.05-8.17,17.19-14.42,25.78-25.23,7-6.72,11.93-11.4,12.84-11.88,5.47-2.87-27.34-88.85-27.34-88.85Z"/><path class="cls-19" d="M-4.23,290.67l-27.09,160.1a44,44,0,0,0-.39,11.89A44.5,44.5,0,0,0-29,474a152,152,0,0,0,25.05,30.4q5,4.77,10.46,9.24c28.43,24.79,78.8,33.79,109.38,5,1.8-1.8,1.8-7.2,0-10.79-9-18-23.84-27.5-37.78-37.78-5-3.83-11.45-6.71-16.19-10.79-9.47-8.16-4.26-4.05-20.45-14.84-7.29-6.71-9.84-10.32-10.79-10.79l19.43-100.1Z"/></g></g><g class="cls-20"><path class="cls-21" d="M210.3,212.19s-16.69-15-32.72-4.94-12.92,52.25,1.15,59c9.55,4.6,11.07-4.44,11.07-4.44s5.53,17.67,12.85,17.49S209,263.4,209,263.4s6.5,22.53,13.85,17S228.36,220.43,210.3,212.19Z"/><path class="cls-22" d="M204.87,214.27s-16.25,13.05-1.9,29.47S213.83,224,204.87,214.27Z"/><path class="cls-21" d="M318,222.85a46.6,46.6,0,0,1,2.82-14.91s6.56-15.14,3.79-25.62-14-16.44-14-16.44-1.52-11.59-19.46-15.75-55.29,12.12-71.63,31.12-22.41,41.45-14.16,65.48c10.37,30.24,32.53,35.64,32.53,35.64s-5.82,7.91-3.86,11,18-4.66,18-4.66,4.45,7.58,11.15,6.89,13.31-18.25,13.31-18.25S318.24,250.92,318,222.85Z"/><path class="cls-23" d="M310.54,178.5S286.16,203,281.39,200.71s-1.77-12.14.41-17c0,0-21.95,37.82-31.36,41.31s-12-15.62-12-15.62,3.43,26.09-3.93,33.65c0,0,12.24,4.9,5.12,13.76a62.26,62.26,0,0,1-7.48-7.54,14.13,14.13,0,0,0-16,3.35c-7.36,7.57,5.94,35.12,24.24,15.63,0,0,18,27.11,56.83,12.38,38.26-14.52,42.69-43.81,36.49-58.71S320.54,204.72,310.54,178.5Z"/><path class="cls-24" d="M286.52,228.57l0.11,0.28a4.16,4.16,0,0,0,.41.73,3.84,3.84,0,0,0,2.3,1.54,4,4,0,0,0,1.8-.11,20.25,20.25,0,0,0,2.07-.74,9,9,0,0,1,2.53-.65,4.29,4.29,0,0,1,2.79.83,5,5,0,0,1,1.69,2.32,4.73,4.73,0,0,1,.09,2.76,5.37,5.37,0,0,1-1.17,2.22,5.12,5.12,0,0,1-1.77,1.32,5.8,5.8,0,0,1-3.12.48,5.5,5.5,0,0,1-1.15-.25,5.45,5.45,0,0,0,1.15,0,6.3,6.3,0,0,0,2.72-.93,4.76,4.76,0,0,0,2.11-3.09,3.83,3.83,0,0,0-.15-2,3.6,3.6,0,0,0-1.23-1.65,2.88,2.88,0,0,0-1.9-.6,7.76,7.76,0,0,0-2.18.45,15.14,15.14,0,0,1-2.26.59,4.48,4.48,0,0,1-2.22-.14,4,4,0,0,1-2.32-2.17,3.76,3.76,0,0,1-.25-0.84Z"/><path class="cls-25" d="M250.87,257.89c1.28,5.1,15.25,4.65,14.67-4.15S248.77,249.51,250.87,257.89Z"/><path class="cls-25" d="M313.95,238.12c1,6,17.2,4.3,15.54-5C328,224.88,312.58,230.1,313.95,238.12Z"/><path class="cls-24" d="M221.66,265.9l-0.3-.13a4.1,4.1,0,0,1-.8-0.48,5.23,5.23,0,0,1-1.81-2.78,5.44,5.44,0,0,1,.82-4.65,6.76,6.76,0,0,1,2-1.87,7,7,0,0,1,2.68-.93,7.81,7.81,0,0,1,2.81.2,8.84,8.84,0,0,1,2.49,1.08A9.4,9.4,0,0,1,231.5,258a10.9,10.9,0,0,1,1.35,1.79,13.26,13.26,0,0,1,1.35,3c0.23,0.77.32,1.21,0.32,1.21s-0.14-.43-0.45-1.16A15.61,15.61,0,0,0,232.5,260a12.21,12.21,0,0,0-1.39-1.64,10,10,0,0,0-1.88-1.45,9,9,0,0,0-2.33-1,7.12,7.12,0,0,0-2.56-.17,6.29,6.29,0,0,0-2.41.82,6.12,6.12,0,0,0-1.85,1.64,5.3,5.3,0,0,0-1,2.1,5.51,5.51,0,0,0,0,2.09,5.27,5.27,0,0,0,1.51,2.77,4.31,4.31,0,0,0,.73.55Z"/><path class="cls-24" d="M230,258.19a5.59,5.59,0,0,0-1.52,1.29,6,6,0,0,0-.53.79,5.61,5.61,0,0,0-.42,1,5.14,5.14,0,0,0-.23,1.08,4.63,4.63,0,0,0,.29,2.21,6.18,6.18,0,0,0,.51,1,6.08,6.08,0,0,0,.65.81,6.42,6.42,0,0,0,.71.63,5.26,5.26,0,0,0,1.26.69,4.15,4.15,0,0,0,.53.18,4.21,4.21,0,0,1-2-.52,5.22,5.22,0,0,1-1.65-1.42,5.2,5.2,0,0,1-.63-1.08,5.64,5.64,0,0,1-.34-1.26,5.58,5.58,0,0,1,0-1.3A5.78,5.78,0,0,1,227,261a5,5,0,0,1,.56-1,5,5,0,0,1,.67-0.78,4.21,4.21,0,0,1,1.27-.83A3.45,3.45,0,0,1,230,258.19Z"/><path class="cls-26" d="M204.3,208c-4.55,17.45-2.08,34.88,8,53.44"/><path class="cls-27" d="M281.64,263.2A31.62,31.62,0,0,0,294,260a4.12,4.12,0,0,0,2.67-3.82c0-2.34-2-4.13-3.53-4.17s-2.94,1-4.43,1.44c-1.32.36-2.74,0.22-4.06,0.56a4.08,4.08,0,0,0-3.06,3.17c-0.43,1.91.06,4.67-1.07,5.72"/><path class="cls-28" d="M253.86,226.8s0.21-.14.59-0.36,0.91-.49,1.53-0.78l1-.48c0.33-.15.66-0.37,1-0.54a7.06,7.06,0,0,0,.95-0.62,7.74,7.74,0,0,0,.92-0.72,9.88,9.88,0,0,0,.9-0.8c0.28-.29.59-0.56,0.87-0.84s0.56-.57.84-0.83,0.53-.53.8-0.76a15.48,15.48,0,0,1,1.32-1.13l0.57-.4-0.07.69a9.54,9.54,0,0,1-.41,1.72,7.7,7.7,0,0,1-.43,1.1,7.59,7.59,0,0,1-.63,1.17,7.78,7.78,0,0,1-.86,1.17,12.67,12.67,0,0,1-1.1,1.08,10.5,10.5,0,0,1-1.31.88,9.71,9.71,0,0,1-1.42.57,7.08,7.08,0,0,1-1.36.26,7.49,7.49,0,0,1-1.2,0,9,9,0,0,1-1.76-.24C254.1,226.89,253.86,226.8,253.86,226.8Z"/><path class="cls-28" d="M299.25,205.8a9.75,9.75,0,0,1,2.12-.54c0.31,0,.66-0.11,1-0.12s0.73-.07,1.12-0.06h1.19l1.21,0.1,1.2,0.18a9.9,9.9,0,0,1,1.16.25,9.51,9.51,0,0,1,1,.3c0.32,0.1.62,0.2,0.9,0.3,0.56,0.18,1,.34,1.4.44a4.69,4.69,0,0,0,.6.16,4.77,4.77,0,0,1-.49.41,4.65,4.65,0,0,1-1.54.65,5.85,5.85,0,0,1-1.07.18,7.66,7.66,0,0,1-1.15.06,9.86,9.86,0,0,1-1.18,0l-1.21-.12-1.2-.2-1.15-.27c-0.38-.08-0.73-0.23-1.07-0.33s-0.66-.24-1-0.36A9.75,9.75,0,0,1,299.25,205.8Z"/><path class="cls-29" d="M255.79,233.71l0.27-.2a6.09,6.09,0,0,1,.81-0.53A16.68,16.68,0,0,1,260,231.6c0.68-.22,1.42-0.45,2.21-0.64s1.63-.4,2.5-0.56,1.78-.32,2.7-0.47l2.25-.29,2.78-.33c0.1,0,0,0,0,.07l-0.13.11-0.27.23-0.53.45-1.06.91-1.78,1.51-2.08,1.73c-0.66.56-1.29,1.11-1.86,1.66a19.32,19.32,0,0,0-1.49,1.63,11.89,11.89,0,0,0-1.71,2.84,6.85,6.85,0,0,0-.41,1.22,6.92,6.92,0,0,1,.14-1.3,9.75,9.75,0,0,1,1.31-3.23,13.59,13.59,0,0,1,1.39-1.89,21.91,21.91,0,0,1,1.8-1.86c0.65-.61,1.33-1.22,2-1.83,0.51-.44.3-0.26,0.35-0.31h0l-0.16,0-0.34,0c-0.91.1-1.81,0.21-2.68,0.33s-1.7.23-2.49,0.36-1.54.26-2.22,0.4a24.76,24.76,0,0,0-3.26.85,7.26,7.26,0,0,0-.88.35Z"/><path class="cls-29" d="M307.49,214a3.18,3.18,0,0,1,1.09-.6l0.59-.27,0.15-.07h0c0,0.05,0,.08.06,0.11s0.05,0,0,.11,0,0.21,0,.16l-0.07,0-0.37.11-1.76.53a10.75,10.75,0,0,0-1.93.78,16.35,16.35,0,0,0-2,1.24q-0.5.36-1,.76a7.67,7.67,0,0,0-.68.57s0,0,0,0l1.23-.18,1.34-.18c0.89-.11,1.77-0.18,2.63-0.21a23.36,23.36,0,0,1,2.47,0,18.45,18.45,0,0,1,2.21.23,15.1,15.1,0,0,1,3.2.84c0.74,0.3,1.14.5,1.14,0.5s-0.44-.1-1.22-0.22a23.65,23.65,0,0,0-3.2-.29c-0.66,0-1.38,0-2.14,0s-1.55.1-2.38,0.18-1.67.21-2.54,0.32l-1.31.19-1.43.23L301,219l-0.44-.05a3.7,3.7,0,0,1-.84-0.14,2,2,0,0,1,.48-1.85,8.76,8.76,0,0,1,1.33-1.1c0.36-.26.72-0.51,1.09-0.74a13.7,13.7,0,0,1,2.23-1.17,9.54,9.54,0,0,1,2.18-.61c0.67-.11,1.28-0.21,1.83-0.28l0.41,0h0.24a0.21,0.21,0,0,1,.09.06,0.23,0.23,0,0,1,.06.18,0.23,0.23,0,0,1-.06.13l0,0-0.08,0-0.19.06-0.64.15A3.63,3.63,0,0,0,307.49,214Z"/><path class="cls-30" d="M257.3,243.71c-0.92-.5-1.83.66-2.24,1.61l-1.78,4.12a6.44,6.44,0,0,0-.72,2.73,2,2,0,0,0,3.85.63,6.44,6.44,0,0,0,.17-3L256,243.72"/><path class="cls-30" d="M252.32,237.49a0.45,0.45,0,0,0-.21-0.61,1.13,1.13,0,0,0-.72,0,6.21,6.21,0,0,0-4.56,3.74,3,3,0,0,0-.24,1.62,1.48,1.48,0,0,0,1,1.19c0.92,0.22,1.7-.7,2.12-1.55,1-2,1.4-4.27,3-5.77"/><path class="cls-30" d="M322,219.59l0-.13a8.84,8.84,0,0,0,.84,3.38,4.75,4.75,0,0,0,1.67,2.05,2.5,2.5,0,0,0,2.55.13c1.27-.76,1.24-2.75.33-3.92a7.94,7.94,0,0,0-3.78-2.21l-2-.72"/><path class="cls-30" d="M326.37,212.12c-0.17.15,0.06,0.4,0.27,0.49,2.07,0.82,4.34-.25,6.52-0.66a2.29,2.29,0,0,1,1.44.07,2.41,2.41,0,0,1,1,1.46c0.29,0.81.42,1.92-.32,2.35a2,2,0,0,1-1.54,0,52,52,0,0,1-6.83-2.57"/><path class="cls-30" d="M332.86,230a12.7,12.7,0,0,0-.13,3.57,4.28,4.28,0,0,0,1.75,3,2.62,2.62,0,0,0,3.28-.29,2.7,2.7,0,0,0,.26-2.92,5.28,5.28,0,0,0-2.18-2.14,10.39,10.39,0,0,0-3.5-1.27"/><path class="cls-30" d="M247.88,261.36a10.28,10.28,0,0,0-.8,4.33,3.94,3.94,0,0,0,1,2.74,1.82,1.82,0,0,0,2.62,0c0.57-.78.18-1.87-0.22-2.75l-1.32-2.86a3.16,3.16,0,0,1-.36-2.67"/><path class="cls-31" d="M248.1,339.4s-12.83,22.66-24.21,29.28c0,0-1.73,2.94-.3,2.9s16.89-11.47,24.24-28.88S248.1,339.4,248.1,339.4Z"/><path class="cls-31" d="M218.5,369.65s-10.26,18.47-9.43,27.53c0,0,28,9.88,39.1,7.51,0,0,9.86-1.35,12.26-2.92s3.75-14.54.86-19.11-20.56-1.94-27-4.37S218.5,369.65,218.5,369.65Z"/><path class="cls-32" d="M256,377.46c-0.65,0-16.71,0-35.53-12.83,0,0-4.2,1.84-4.73,4.64s6.61,14.81,11,17.45,19.71,3,23.05.9,7.7-7.58,11.47-5C261.28,382.66,261.74,377.86,256,377.46Z"/><path class="cls-33" d="M228.6,385.54c2.83,0.82,1.83,6.29-1.75,6.61S225.77,384.73,228.6,385.54Z"/><g class="cls-34"><path class="cls-35" d="M249.32,388.37s-0.5.92-1.15,2.34c-0.17.35-.32,0.74-0.5,1.15s-0.32.85-.5,1.3-0.33.93-.46,1.41-0.28,1-.42,1.48-0.25,1-.34,1.5-0.18,1-.27,1.46-0.14.94-.19,1.38-0.09.86-.12,1.25c-0.06.77-.1,1.42-0.11,1.88l0,0.72-0.12-.71a15.37,15.37,0,0,1-.16-1.9c0-.4,0-0.82,0-1.28s0.05-.93.1-1.42,0.11-1,.22-1.51,0.21-1,.33-1.54,0.28-1,.45-1.51,0.36-1,.54-1.43,0.39-.89.6-1.29,0.41-.78.61-1.12A15.86,15.86,0,0,1,249.32,388.37Z"/></g><path class="cls-36" d="M349.62,358.63s34.92,39.86,55.4,83.22,22.84,56.39,30.59,60.45c0,0-5.62,9.85-13.54,11.71a42.32,42.32,0,0,0-4-10.63c-3.18-6.15-35.69-67.93-84.73-103.59,0,0-3,46.79-12.23,79.16S303.2,529.3,303,531.85s2.48,9.22,2.48,9.22-11.35,6.27-21.89-6.11c0,0,6.24-6,8.92-26,5-37.49-6-114-2.72-134.53Z"/><path class="cls-37" d="M332.94,400.68s0-.65.09-1.6c0-.24,0-0.5.08-0.77s0.06-.56.11-0.86l0.13-.91,0.16-.94,0.18-.93c0.06-.31.13-0.61,0.19-0.9s0.13-.57.2-0.84,0.13-.52.2-0.75c0.13-.46.25-0.84,0.34-1.11l0.15-.42v0.44c0,0.28,0,.68-0.07,1.16,0,0.24,0,.5-0.08.77s-0.06.56-.11,0.85-0.08.6-.14,0.91l-0.16.94-0.18.93-0.2.9c-0.06.29-.14,0.57-0.2,0.84s-0.14.52-.2,0.75C333.17,400.08,332.94,400.68,332.94,400.68Z"/><path class="cls-37" d="M329.56,396.51a29.88,29.88,0,0,1,1.81-3.15c0.29-.46.62-1,1-1.46s0.77-1,1.19-1.57,0.88-1.08,1.37-1.61,1-1.06,1.5-1.58,1-1,1.59-1.49,1.08-.93,1.61-1.36,1.06-.83,1.58-1.18,1-.7,1.47-1c0.92-.59,1.72-1,2.28-1.32l0.89-.45-0.82.57c-0.52.36-1.26,0.89-2.12,1.54-0.44.32-.89,0.69-1.38,1.07s-1,.81-1.5,1.24-1,.9-1.55,1.38-1,1-1.55,1.48-1,1-1.49,1.54-0.95,1-1.4,1.54-0.87,1-1.25,1.49-0.76.94-1.08,1.37C330.38,395.3,329.56,396.51,329.56,396.51Z"/><path class="cls-37" d="M333.34,386.71a10.63,10.63,0,0,1,.78-0.89l0.4-.41c0.15-.14.29-0.29,0.46-0.44l0.5-.45,0.53-.45,0.54-.44c0.18-.15.36-0.28,0.54-0.41l0.52-.36,0.48-.31c0.3-.19.56-0.33,0.74-0.43l0.29-.15-0.2.26c-0.13.16-.32,0.39-0.57,0.64l-0.4.41-0.46.44c-0.16.15-.33,0.3-0.51,0.45l-0.53.45-0.55.43-0.54.4c-0.17.13-.35,0.25-0.52,0.36l-0.48.31A10.62,10.62,0,0,1,333.34,386.71Z"/><path class="cls-37" d="M330.23,373.87a25,25,0,0,1,1.3,2.22c0.18,0.34.37,0.71,0.56,1.11s0.39,0.82.58,1.26l0.57,1.38,0.53,1.44,0.46,1.47c0.15,0.48.27,1,.39,1.44s0.22,0.92.31,1.36,0.17,0.84.23,1.23c0.13,0.76.2,1.4,0.25,1.85l0.06,0.71-0.2-.68-0.51-1.78-0.34-1.19L334,384.35l-0.44-1.4-0.47-1.44-0.5-1.43-0.5-1.38-0.49-1.29-0.45-1.15Z"/><path class="cls-37" d="M335.74,372a16.31,16.31,0,0,1,1.14,2.26c0.15,0.35.3,0.73,0.44,1.15s0.28,0.85.42,1.31,0.25,0.94.35,1.43,0.18,1,.26,1.5,0.12,1,.15,1.51,0,1,.05,1.47,0,0.94,0,1.37-0.06.85-.12,1.22a15.56,15.56,0,0,1-.33,1.81l-0.17.67,0-.69c0-.44.05-1.07,0.06-1.82,0-.37,0-0.78,0-1.21s0-.88,0-1.34l-0.11-1.43c0-.49-0.1-1-0.16-1.47s-0.14-1-.23-1.46-0.18-1-.28-1.41-0.2-.9-0.32-1.31-0.21-.81-0.32-1.16C336.08,373,335.74,372,335.74,372Z"/><path class="cls-37" d="M288.46,391.49l0.92-.24c0.29-.06.65-0.17,1-0.3s0.85-.26,1.33-0.45,1-.39,1.54-0.63,1.08-.53,1.66-0.81,1.14-.63,1.69-1,1.11-.77,1.66-1.17,1.07-.85,1.55-1.31,1-.92,1.41-1.37,0.86-.92,1.21-1.39,0.71-.89,1-1.32,0.56-.81.79-1.17,0.43-.66.57-0.93l0.48-.83-0.35.89a9.89,9.89,0,0,1-.45,1,12.25,12.25,0,0,1-.68,1.26,14.42,14.42,0,0,1-.93,1.42c-0.33.5-.76,1-1.17,1.49s-0.89,1-1.41,1.45-1,.92-1.59,1.36-1.13.83-1.73,1.18-1.19.68-1.77,1-1.17.54-1.74,0.75a15.35,15.35,0,0,1-1.61.52,12,12,0,0,1-1.39.33,9.79,9.79,0,0,1-1.08.18Z"/><path class="cls-37" d="M344.27,367.59L344.9,368c0.4,0.24,1,.56,1.68.91,0.35,0.18.74,0.36,1.15,0.54s0.86,0.35,1.31.54,0.93,0.35,1.43.48,1,0.29,1.5.42,1,0.24,1.52.31,1,0.16,1.49.22,1,0.1,1.41.12,0.87,0,1.27,0c0.79,0,1.45,0,1.91,0l0.73,0-0.71.18a13.23,13.23,0,0,1-1.91.31,12.48,12.48,0,0,1-1.3.08c-0.46,0-.95,0-1.45,0s-1-.08-1.55-0.18-1-.2-1.58-0.31-1-.28-1.54-0.46-1-.37-1.45-0.56-0.9-.41-1.3-0.64-0.78-.44-1.12-0.66a13.81,13.81,0,0,1-1.56-1.15Z"/><path class="cls-23" d="M283.93,281.49s2.9,6.57,2.18,8.59-4.45,4.14-6.55,6.55,17.45,22.84,28.3,20.87,16.07-11.59,14.55-16.52-9.37-15.8-11.42-16.06-6,.61-9.41-1a8.18,8.18,0,0,1-4.3-4.89Z"/><path class="cls-38" d="M286.2,288.72a39,39,0,0,0-1.1-4.25,72.91,72.91,0,0,0,13.3-3.2S289.68,287.33,286.2,288.72Z"/><path class="cls-24" d="M286.32,298.15l1.67,0,0.8,0c0.28,0,.58,0,0.89,0s0.62,0,.94-0.08,0.65-.06,1-0.1,0.65-.08,1-0.14l0.93-.15,0.87-.17,0.78-.17,1.18-.27,0.45-.1-0.4.23a9.63,9.63,0,0,1-1.1.53c-0.23.1-.49,0.2-0.77,0.29s-0.57.18-.88,0.26-0.63.16-1,.21-0.66.11-1,.16-0.67.07-1,.08-0.66,0-1,0-0.62,0-.91-0.05-0.56-.06-0.81-0.1A9.89,9.89,0,0,1,286.32,298.15Z"/><path class="cls-24" d="M301.69,295.77s0.43-.35,1.09-0.81l0.53-.38,0.6-.41,0.64-.44,0.66-.45,0.66-.45,0.64-.43,0.61-.4,0.55-.35,0.84-.51,0.33-.18-0.24.29c-0.16.18-.38,0.44-0.68,0.73-0.14.15-.31,0.3-0.48,0.45s-0.36.32-.56,0.48-0.4.33-.62,0.48l-0.66.47-0.69.44-0.68.39c-0.22.12-.45,0.23-0.66,0.33l-0.6.27A10,10,0,0,1,301.69,295.77Z"/><path class="cls-39" d="M292.41,309.43s12.78,0.52,26.41-11.26c0,0,7.62,33.46,11.58,39s17,16.3,22.11,22.94c0,0-6.85,9.13-21.73,14s-33.48,6.4-43.21,1.39a97,97,0,0,1,5.5-21.65c4.4-11.52,2.61-25.7-1-31.19S292.41,309.43,292.41,309.43Z"/><path class="cls-40" d="M296.07,360.74l3,1.79,1.47,0.84c0.52,0.3,1.08.59,1.65,0.91s1.17,0.63,1.79.93,1.24,0.62,1.86.93,1.26,0.61,1.88.88l1.84,0.82,1.74,0.73,1.57,0.63,2.37,0.91,0.9,0.35-0.94-.21c-0.6-.14-1.45-0.35-2.46-0.66-0.51-.15-1.05-0.32-1.62-0.52s-1.17-.42-1.79-0.65-1.25-.49-1.88-0.78-1.27-.58-1.91-0.88-1.26-.63-1.87-1-1.2-.67-1.77-1-1.11-.67-1.62-1-1-.65-1.41-0.95C297.13,361.66,296.07,360.74,296.07,360.74Z"/><path class="cls-40" d="M297,366.9s0.66,0.26,1.63.68l0.78,0.33,0.87,0.37,0.93,0.39,1,0.4,1,0.4,0.93,0.38,0.87,0.36,0.78,0.32,1.18,0.5,0.45,0.2-0.48-.06c-0.31,0-.75-0.12-1.26-0.24-0.26-.05-0.54-0.13-0.83-0.21s-0.6-.17-0.92-0.27-0.64-.21-1-0.34l-1-.39-1-.43-0.92-.46c-0.29-.15-0.57-0.31-0.84-0.47s-0.51-.3-0.73-0.45A14.88,14.88,0,0,1,297,366.9Z"/><path class="cls-40" d="M341.92,352.63a7.77,7.77,0,0,1,.22,1.18c0,0.18,0,.37.05,0.58s0,0.42,0,.65v0.69l0,0.71-0.09.71c0,0.23-.07.46-0.12,0.68s-0.09.43-.15,0.63-0.1.39-.16,0.56a7.73,7.73,0,0,1-.3.82l-0.14.3v-0.33c0-.21,0-0.51,0-0.86l0-.57,0.05-.63,0.06-.67,0.07-.7,0.07-.7,0.07-.67,0.07-.63,0.07-.57C341.82,353.11,341.92,352.63,341.92,352.63Z"/><path class="cls-23" d="M366.92,222.5s-2.42-6.53-1.93-9.93,3.35-5.68,5.45-4.84c0,0,4-5.73,5.57-6.23s2.23,3.52,2.23,3.52,3.62-1.87,4.05-1-0.67,4.52-.67,4.52,1.32,1.3,1.13,2.49-7.26,9-8.19,10S366.92,222.5,366.92,222.5Z"/><path class="cls-41" d="M278.81,304.94c-1.49-2.48-4.76-3.42-7.61-3s-5.39,2.05-7.77,3.69A125.17,125.17,0,0,0,251,315.43c-4.88,4.36-9.71,9.28-16,11.08-6.52,1.87-13.46.07-20.24-.06-10.09-.21-20.48,3.66-27,11.38-3.56,4.23-5.89,10.17-3.87,15.32a2.58,2.58,0,0,0,1.54,1.72,2.71,2.71,0,0,0,1.26-.08c12.39-2.89,20.79-15.92,33.38-17.8,4.22-.63,8.51.08,12.77,0.28,11.8,0.54,24.67-3.72,30.81-13.82,1.29-2.12,2.27-4.47,3.93-6.3,4.35-4.8,12.12-4.93,16.85-9.36"/><path class="cls-41" d="M314.42,320.73c-2-2.63-15.19-7-23-13.16A26,26,0,0,1,282,293.66a50.34,50.34,0,0,0-8.52,4.54,27,27,0,0,0-3.3,3c4.19,7.33,6.57,15.34,8.67,23.4a15.83,15.83,0,0,1,1.47-.66c1.77,1.25,8,10.69,10.61,18.85a19.62,19.62,0,0,1-.67,14.35c18.72,3.22,34-6.18,34-6.18C324.42,340.19,316.44,323.36,314.42,320.73Z"/><path class="cls-42" d="M282,293.66a29.61,29.61,0,0,0-6,2c-3.27,1.5,5,16.8,14.55,20.56s21.2,3.48,23.49,4.17a2.37,2.37,0,0,0-1-1,52.89,52.89,0,0,0-4.75-2.44C304.09,315,285.7,307.5,282,293.66Z"/><path class="cls-41" d="M307.22,284.94s9.27,8.92,10,18.81-2,14.63-3.46,17.1l8.51,24.31s4.82,3.54,6.07,3.63,8.42-3.58,9.8-5.09c0,0-6-8.83-6.68-10.64s-3.66-11.92-3.67-14.12,3.81-6.68,2.81-12.18-15.08-21.7-16.74-22.34S307.22,284.94,307.22,284.94Z"/><path class="cls-42" d="M305,284.84s5.13-2.31,7.22-.62a34,34,0,0,1,9.56,15c2.19,7.47-7.33,21.5-8,21.62s5.61-12.44,2.9-19.87S311.06,289.48,305,284.84Z"/><path class="cls-31" d="M271.22,299.55s11.39,2.3,8.41,23.08c-2.74,19.11-15.31,44.78-21.13,55.53l2.17,2.72s20.16-37.33,21.7-58.74S275.75,299,273,298.59,271.22,299.55,271.22,299.55Z"/><path class="cls-43" d="M313.49,326.18a1.61,1.61,0,1,1-2-1.5A1.83,1.83,0,0,1,313.49,326.18Z"/><path class="cls-43" d="M319.32,340.77a1.61,1.61,0,1,1-2-1.5A1.83,1.83,0,0,1,319.32,340.77Z"/><g class="cls-34"><path class="cls-44" d="M280.35,323.92s-0.26-.77-0.6-1.91l-0.28-.92-0.34-1c-0.11-.35-0.26-0.7-0.4-1.06s-0.3-.71-0.49-1.05a10.75,10.75,0,0,0-.56-1c-0.21-.32-0.41-0.64-0.64-0.92s-0.45-.55-0.66-0.82-0.45-.47-0.65-0.69c-0.43-.4-0.79-0.74-1.07-1l-0.42-.36,0.5,0.24a8.74,8.74,0,0,1,1.26.76c0.24,0.19.51,0.39,0.77,0.63a8,8,0,0,1,.77.8,8.32,8.32,0,0,1,.72.95,11.51,11.51,0,0,1,.61,1.06c0.19,0.37.34,0.75,0.49,1.12s0.26,0.75.36,1.12,0.18,0.73.25,1.07,0.12,0.66.17,1C280.32,323.11,280.35,323.92,280.35,323.92Z"/></g><g class="cls-34"><path class="cls-44" d="M270.62,301.79a5.27,5.27,0,0,1,.68.08,6.38,6.38,0,0,1,1.73.55,7.86,7.86,0,0,1,1.06.61,8.71,8.71,0,0,1,1.07.85,11.64,11.64,0,0,1,1,1.06,13.14,13.14,0,0,1,.88,1.23c0.26,0.43.5,0.88,0.71,1.32s0.39,0.9.56,1.33,0.3,0.87.41,1.28,0.22,0.8.3,1.16c0.17,0.72.27,1.33,0.34,1.76l0.1,0.67-0.24-.64-0.6-1.68-0.41-1.11L277.72,309c-0.18-.42-0.38-0.84-0.59-1.27s-0.44-.84-0.69-1.25a12.5,12.5,0,0,0-.81-1.17,11,11,0,0,0-.9-1,10.79,10.79,0,0,0-1-.87,10.19,10.19,0,0,0-.94-0.68,8.09,8.09,0,0,0-1.57-.77C270.86,301.85,270.62,301.79,270.62,301.79Z"/></g><g class="cls-34"><path class="cls-44" d="M260.13,353.44s0-.32-0.12-0.87a9.73,9.73,0,0,0-.67-2.18,9.94,9.94,0,0,0-1.74-2.66,8.77,8.77,0,0,0-1.32-1.2,8.41,8.41,0,0,0-1.57-.94,8.23,8.23,0,0,0-1.16-.44l-0.78-.28-0.19-.07s-0.1,0-.06,0l0.1,0,0.38-.19c0.23-.12.49-0.24,0.76-0.35a5.65,5.65,0,0,1,.67-0.21,5.56,5.56,0,0,1,1-.13,5.13,5.13,0,0,1,1.8.23,4.87,4.87,0,0,1,1.45.73,5.15,5.15,0,0,1,1.55,1.78,4.47,4.47,0,0,1,.34.82,4.44,4.44,0,0,0-.46-0.74,5.59,5.59,0,0,0-1.66-1.51,5.08,5.08,0,0,0-1.36-.55,5.2,5.2,0,0,0-1.62-.12,5.11,5.11,0,0,0-.84.15c-0.32.09-.17,0.06-0.22,0.07a4,4,0,0,1,.64.26,9.11,9.11,0,0,1,1.69,1,9.4,9.4,0,0,1,1.37,1.33,8.67,8.67,0,0,1,1,1.47,8.38,8.38,0,0,1,.64,1.45,8.21,8.21,0,0,1,.44,2.31C260.16,353.12,260.13,353.44,260.13,353.44Z"/></g><g class="cls-34"><path class="cls-44" d="M293.5,344.41a17.35,17.35,0,0,1,1.89.32c0.28,0.06.58,0.13,0.9,0.21s0.65,0.17,1,.28l1.05,0.34,1.07,0.39,1.06,0.44c0.35,0.14.68,0.31,1,.46s0.63,0.31.92,0.47,0.56,0.31.81,0.46c0.5,0.29.9,0.56,1.17,0.75l0.43,0.31-0.5-.18-1.29-.5-0.85-.34-0.95-.38-1-.41-1-.42-1.05-.41-1-.4-1-.37-0.86-.33C294.21,344.71,293.5,344.41,293.5,344.41Z"/></g><g class="cls-34"><path class="cls-44" d="M293,340.07s0.35-.13.86-0.26l0.41-.1,0.46-.11,0.49-.11,0.51-.1,0.51-.1,0.5-.08,0.47-.07,0.42-.05,0.65-.06h0.25l-0.21.14a4.69,4.69,0,0,1-.58.32l-0.4.18-0.46.17c-0.16.05-.33,0.11-0.5,0.14l-0.52.11-0.53.08-0.52,0h-0.49l-0.44,0A4.72,4.72,0,0,1,293,340.07Z"/></g><g class="cls-34"><path class="cls-44" d="M314.16,321.09s0.84,1.33,2,3.4c0.28,0.52.58,1.08,0.88,1.69l0.94,1.91,0.95,2.07,0.92,2.16,0.86,2.18c0.28,0.72.53,1.44,0.78,2.13s0.47,1.37.67,2,0.4,1.25.56,1.82c0.34,1.13.59,2.08,0.75,2.75l0.25,1.05-0.39-1-1-2.66-0.67-1.77-0.76-2-0.83-2.1-0.87-2.17-0.89-2.16-0.88-2.08-0.85-1.94-0.77-1.73Z"/></g><g class="cls-34"><path class="cls-44" d="M323.55,295.13a30.92,30.92,0,0,1,2.66,2.94c0.37,0.46.77,1,1.17,1.53s0.82,1.14,1.21,1.78,0.79,1.3,1.15,2a13.52,13.52,0,0,1,.91,2.24A9.67,9.67,0,0,1,331,308a10.92,10.92,0,0,1-.21,2.34,16.33,16.33,0,0,1-.55,2.1c-0.21.65-.44,1.26-0.66,1.81-0.45,1.11-.86,2-1.16,2.63l-0.47,1,0.34-1,0.9-2.72c0.17-.56.36-1.17,0.54-1.82s0.33-1.34.44-2.05a12,12,0,0,0,.14-2.21,9,9,0,0,0-.35-2.24,12.84,12.84,0,0,0-.84-2.13c-0.33-.69-0.7-1.35-1.07-2s-0.74-1.24-1.11-1.81-0.72-1.1-1.06-1.58C324.54,296.37,323.55,295.13,323.55,295.13Z"/></g><g class="cls-34"><path class="cls-44" d="M260.69,392.51l0.2-.48a6.56,6.56,0,0,1,.68-1.19,6.34,6.34,0,0,1,.57-0.73,8.91,8.91,0,0,1,.73-0.74c0.28-.23.56-0.47,0.88-0.68s0.65-.4,1-0.6,0.69-.34,1.05-0.46a8.28,8.28,0,0,1,1.06-.32,8,8,0,0,1,1-.17,6.09,6.09,0,0,1,.93,0,6.28,6.28,0,0,1,1.37.15l0.5,0.12-0.52,0a11.21,11.21,0,0,0-1.33.12c-0.27,0-.56.09-0.87,0.16s-0.62.16-.95,0.25-0.65.22-1,.35-0.65.29-1,.44-0.64.34-.93,0.54-0.58.39-.86,0.59-0.53.41-.75,0.63-0.45.41-.63,0.62a11.06,11.06,0,0,0-.87,1Z"/></g><g class="cls-34"><path class="cls-44" d="M261.69,388.66a2.44,2.44,0,0,1,.13-0.9,2.49,2.49,0,0,1,.16-0.42,3.41,3.41,0,0,1,.24-0.44,3.64,3.64,0,0,1,1.18-1.13,3.1,3.1,0,0,1,.48-0.25,2.86,2.86,0,0,1,.48-0.16,2.28,2.28,0,0,1,.44-0.08,2.32,2.32,0,0,1,.66,0l0.24,0.05-0.23.09c-0.14.05-.34,0.14-0.57,0.24l-0.36.18-0.38.22-0.39.26a4.58,4.58,0,0,0-.38.29,4.67,4.67,0,0,0-.36.32,4.61,4.61,0,0,0-.33.33c-0.09.12-.21,0.22-0.29,0.33s-0.18.21-.24,0.32C261.87,388.34,261.69,388.66,261.69,388.66Z"/></g><path class="cls-41" d="M314.44,288c-3.2-3.4,4.18-6.43,7.47-9.75s7.95-4.79,12.34-6.38,9-3.64,11.48-7.58c4.27-6.69.89-15.33-.45-23.15-0.41-2.41-.53-5.17,1.08-7,2-2.25,5.42-2.08,8.33-2.77A13.05,13.05,0,0,0,364.31,221c0.23-1.39.71-3.28,2.12-3.17a2.58,2.58,0,0,1,1.24.58c1.79,1.27,3.76,2.84,3.84,5,0.11,2.78-2.76,4.58-5.08,6.12a30.66,30.66,0,0,0-13.19,28.22c0.64,5.9,2.72,12.82-1.43,17.05-1.59,1.62-3.8,2.43-5.89,3.3a70,70,0,0,0-12.51,6.75c-2.43,1.65-4.84,3.56-6,6.24-0.87,2-1,4.29-2.31,6s-4.49,2.29-5.33.3"/></g><path class="cls-23" d="M198.29,355s-1.82,8.63-4.17,11-6,.92-7.16-2.33c0,0-6.51.2-8.06-1.26s0.24-5.76.24-5.76-4-2.72-3.83-4,3.15-3.15,3.15-3.15-0.31-2.73.53-3.54,11,0.84,12.34,1.12S198.29,355,198.29,355Z"/><path class="cls-45" d="M95.08,185s10.42-1.25,13.08-1.21c0,0,12.5,9.43,33.78,16.63l-17.69,4.83-28.83-14.4Z"/><path class="cls-41" d="M79.76,274.94s-24.34-19.69-38-44.08c0,0,47.46-38,53.35-45.83,0,0,24.27,13.28,30.75,16s-16.26,40.68-16.26,40.68Z"/><path class="cls-45" d="M79.76,274.94l46.07-73.88s11.51,0.93,16.1-.61L100.8,274.82s-7.37-3.1-9.33-3.84Z"/><path class="cls-41" d="M105.77,185.36a153.42,153.42,0,0,1,15.69-12.81c8.19-5.83,17.23-10.94,27.13-12.2a3.57,3.57,0,0,1,3,.58,3.69,3.69,0,0,1,.8,2.28,53.61,53.61,0,0,1-11.75,39.22,107.39,107.39,0,0,0,13.07-18.31c2.76-4.87,5.2-10.42,4.12-15.9a18.08,18.08,0,0,0-5.82-9.52c-2.63-2.42-6.22-4.41-9.64-3.37a12.84,12.84,0,0,0-3.81,2.23l-17.19,12.92c-6.51,4.89-13.16,9.93-17.58,16.8"/><path class="cls-46" d="M114,107.5l-7.65,8.74S87.76,127,77.15,135.39l3.35-10.58S102.56,107.86,114,107.5Z"/><path class="cls-47" d="M114,107.5S79.56,45.33,74.89,37.18c0,0-29.73,8.51-53.15,35.28,0,0,41,44.55,57.64,53.63C79.39,126.09,108.29,112.15,114,107.5Z"/><polygon class="cls-46" points="77.15 135.39 15.95 91.83 21.75 72.46 80.5 124.81 77.15 135.39"/><path class="cls-47" d="M78.16,132.2s12.08,14.64,32,17.61c0,0,2.46-1.26-1.39-2.74s-21.59-9-29.67-17.89C79.12,129.18,76.2,130.1,78.16,132.2Z"/><path class="cls-48" d="M203.33,292.81s-37,13.35-60.81,12.32c0,0-7-2.94-5.74-4.63s39.3-2.28,63.85-10.86C200.64,289.65,206.59,287.66,203.33,292.81Z"/><path class="cls-49" d="M143.84,303.5s0.71,1.35,2,3.69c0.65,1.17,1.45,2.58,2.38,4.19,6.5,11.28,19.44,32.33,33.45,47.34,0,0-76.39,48-87.74,54.13l-11.76-9.48L65,397.64c-0.11-.22-28.1-45.26-32-68.54l101.52-29.58,4.68,2Z"/><path class="cls-48" d="M134.48,299.52s16,33.25,31.19,50.07l16,9.13S163,334.39,151.12,315.85c-1.49-2.32-2.87-4.54-4.1-6.62-1-3.34-3.14-7-7.86-7.72Z"/><path class="cls-48" d="M65,397.64c0.23-.11,96.32-46,100.69-48.05l16,9.13L93.94,412.85l-11.76-9.48Z"/><path class="cls-49" d="M211.22,296.81c-1.08,12-4,22.91-11,32.2a59.38,59.38,0,0,1-4.6,6.08,56.3,56.3,0,0,1-4.33,4.46,58.39,58.39,0,0,1-4.81,4c-1.58,1.34-3.21,2.65-4.87,3.9a80,80,0,0,1-10.36,6.69s-2.81,3.27,5.29,1.69c2.28-.45,5.93-2.72,10.16-6,1.41-1.1,2.88-2.31,4.38-3.61a59.68,59.68,0,0,0,5.73-4.75,63,63,0,0,0,5.41-5.75,55.27,55.27,0,0,0,3.76-5.24c8.5-11.45,15.05-31.84-1-39.85-1.46-.73-3.64,0-5.1.73,3.64,0,7.28,0,10.19,1.87A12.42,12.42,0,0,1,211.22,296.81Z"/><path class="cls-49" d="M65.35,397.72c31.13-14,59.69-27.63,93.51-44.9"/></svg>