<svg xmlns="http://www.w3.org/2000/svg" xmlns:xlink="http://www.w3.org/1999/xlink" viewBox="0 0 561.42 403.35"><defs><style>.cls-1,.cls-19,.cls-20{fill:none;}.cls-2{isolation:isolate;}.cls-3{fill:#38a4dd;}.cls-4{clip-path:url(#clip-path);}.cls-5{fill:#475153;}.cls-6{fill:#e0e1e2;}.cls-7{fill:#444f53;}.cls-8{fill:#56bbd3;}.cls-9{fill:#f0f4f7;}.cls-10{fill:#e6ebee;}.cls-11{fill:#d7dce0;}.cls-12{fill:#c9ced4;}.cls-13{fill:#e1e5e8;}.cls-14{fill:#8bb1de;}.cls-15{fill:#568cc9;}.cls-16{fill:#c4c8cc;opacity:0.4;}.cls-17{fill:#81cec8;}.cls-18{fill:#f58d89;}.cls-19{stroke:#25302e;stroke-width:1.44px;}.cls-19,.cls-20{stroke-miterlimit:10;}.cls-20{stroke:#fff;stroke-width:3.36px;}.cls-21{fill:#fff;}.cls-22{fill:#f39b80;}.cls-23{fill:#fee1c6;}.cls-24{clip-path:url(#clip-path-2);}.cls-25{opacity:0.6;}.cls-26{clip-path:url(#clip-path-3);}.cls-27{fill:#21448d;opacity:0.23;mix-blend-mode:multiply;}.cls-28{fill:#73b7b2;}.cls-29{fill:#35496c;}.cls-30{fill:#112133;}</style><clipPath id="clip-path"><rect class="cls-1" x="-6.06" y="-52.48" width="567.33" height="455.54"/></clipPath><clipPath id="clip-path-2"><rect class="cls-1" x="5.54" y="-494.72" width="549.87" height="400.74"/></clipPath><clipPath id="clip-path-3"><rect class="cls-1" x="-16.82" y="-403.4" width="506.66" height="308.45"/></clipPath></defs><title>ep1</title><g class="cls-2"><g id="Layer_1" data-name="Layer 1"><rect class="cls-3" x="-6.06" y="-3" width="567.33" height="406.35"/><g class="cls-4"><path class="cls-5" d="M475.74,170.73L583.8,249.07a29.36,29.36,0,0,1,6.71,6c5,6.84,3.38,16.35,1.49,24.58-0.85,3.69-2.57,8.15-6.29,8.32a8.63,8.63,0,0,1-3.22-.69A423.68,423.68,0,0,1,455.88,215.6a5.6,5.6,0,0,1-2.31-3.07,5.49,5.49,0,0,1,.61-3,426.64,426.64,0,0,1,19.49-40.76"/><path class="cls-6" d="M194,118.61s-4.83-46.71,37.37-78.12c1.16-.87,30.33-19.27,59.87-19.27,21.75,0,48.62,9.53,56.29,16.26,0,0,46.06,26.71,39.65,81.19l-10.24,20.17-28.15,7.84-115.14,0-28.14-9Z"/><path class="cls-7" d="M219.71,114.7s-3.61-29,27.94-48.57c0.87-.54,3.67-2.06,4.59-2.59,11.52-6.67,26.55-13.28,40.28-13.28,14.07,0,29.64,6,38.36,11.61,0,0,38.07,19,33.27,52.88l-17.9,31.9H240.07Z"/><ellipse class="cls-8" cx="254.81" cy="105.39" rx="5.23" ry="7.52"/><ellipse class="cls-8" cx="330.98" cy="106.75" rx="4.55" ry="7.38"/><path class="cls-9" d="M330.88,24.87V24.12S298.08,3,254.78,22.5v3C280,23.93,305.44,23.9,330.88,24.87Z"/><path class="cls-10" d="M254.78,25.47v3.88h76.1V24.87C305.44,23.9,280,23.93,254.78,25.47Z"/><path class="cls-9" d="M282.18,119.94H391.06c25.24,27.81,76.51,98.24,77.26,107.93,1.27,16.57,35.12,164.4,29.09,182.35-22.64,67.46-77.16,128.92-83.49,128.92-84,0-116.53,1.62-130.26.44C284.9,394,278.48,260.06,282.18,119.94Z"/><path class="cls-11" d="M284.6,120h-100c-23.18,27.81-70.25,98.24-70.94,107.93C112.52,244.53,81.45,392.36,87,410.31c20.79,67.46,70.85,128.92,76.66,128.92,77.13,0,107,1.62,119.6.44C282.1,394,288,260.15,284.6,120Z"/><path class="cls-12" d="M89.23,169c2.11-5.9,4.53-12.57,6.9-19.07Q91.06,147,86,144.2c-3.17,8.67-6.71,18.4-9.66,26.62-7.28,20.32,3.64,29.55,3.64,29.55l34.32,27.82,5.23-8.08L92.87,198.53S81.95,189.29,89.23,169Z"/><path class="cls-13" d="M104,128.55a14.42,14.42,0,0,1,6.5-7.6h-6A14.33,14.33,0,0,0,91,130.4C89.6,134.26,87.84,139,86,144.2q5.1,2.83,10.17,5.7C99,142,101.85,134.26,104,128.55Z"/><path class="cls-14" d="M183.7,120.95H110.45a14.42,14.42,0,0,0-6.5,7.6c-2.1,5.71-4.92,13.41-7.82,21.35,16.81,9.53,33.37,19.36,49.8,29.37Z"/><path class="cls-15" d="M96.13,149.9c-2.37,6.5-4.79,13.17-6.9,19.07-7.28,20.32,3.64,29.55,3.64,29.55l26.62,21.58,26.44-40.83C129.51,169.27,112.94,159.43,96.13,149.9Z"/><path class="cls-13" d="M481.71,130.4a14.1,14.1,0,0,0-13.2-9.45h-5.9a14.35,14.35,0,0,1,6.39,7.6c2.29,6.35,5.47,15.14,8.64,24l10-5.8C485.41,140.64,483.34,134.9,481.71,130.4Z"/><path class="cls-12" d="M487.61,146.76l-10,5.8c2,5.64,4,11.32,5.83,16.41,7.16,20.32-3.58,29.55-3.58,29.55l-26.18,21.58,5.15,8.08,33.74-27.82s10.74-9.24,3.58-29.55C493.57,163.4,490.48,154.75,487.61,146.76Z"/><path class="cls-14" d="M469,128.55a14.35,14.35,0,0,0-6.39-7.6h-72l38.3,60.15q24.33-14.35,48.75-28.54C474.46,143.69,471.29,134.89,469,128.55Z"/><path class="cls-15" d="M477.64,152.56q-24.42,14.21-48.75,28.54l24.83,39,26.18-21.58s10.74-9.24,3.58-29.55C481.68,163.88,479.66,158.21,477.64,152.56Z"/><circle class="cls-5" cx="210.12" cy="328.18" r="7.39" transform="translate(-170.51 244.7) rotate(-45)"/><circle class="cls-16" cx="210.12" cy="328.18" r="2.77"/><path class="cls-17" d="M284.77,195.21H214.21a16.67,16.67,0,0,0-16.53,14.48l-9.47,71.41A16.67,16.67,0,0,0,204.74,300h82C287,265.14,286.73,230.25,284.77,195.21Z"/><path class="cls-18" d="M384.58,280.61L372.92,209.2a16.67,16.67,0,0,0-16.46-14H284.77c2,35,2.27,69.93,1.94,104.76h81.42A16.67,16.67,0,0,0,384.58,280.61Z"/><path class="cls-19" d="M384.58,280.61L372.92,209.2a16.67,16.67,0,0,0-16.46-14H214.21a16.67,16.67,0,0,0-16.53,14.48l-9.47,71.41A16.67,16.67,0,0,0,204.74,300H368.12A16.67,16.67,0,0,0,384.58,280.61Z"/><path class="cls-5" d="M80.26,200.37L62.77,303.74a28.44,28.44,0,0,0-.25,7.68,28.73,28.73,0,0,0,1.76,7.35,98.11,98.11,0,0,0,16.17,19.63q3.24,3.08,6.75,6c18.35,16,50.87,21.81,70.62,3.23,1.16-1.16,1.16-4.65,0-7C152,329,142.43,322.87,133.43,316.23c-3.23-2.47-7.39-4.33-10.45-7-6.12-5.27-2.75-2.62-13.2-9.58-4.71-4.33-6.35-6.66-7-7l12.55-64.62Z"/><circle class="cls-20" cx="243.77" cy="247.6" r="26.53"/><circle class="cls-21" cx="233.57" cy="243.92" r="2.99"/><circle class="cls-21" cx="253.43" cy="244.2" r="2.99"/><path class="cls-20" d="M232.48,253.18s3,8.3,11.29,8.3,9.66-8,9.66-8"/><circle class="cls-20" cx="330.85" cy="247.6" r="26.53"/><circle class="cls-21" cx="320.65" cy="243.92" r="2.99"/><circle class="cls-21" cx="340.51" cy="244.2" r="2.99"/><path class="cls-20" d="M320.65,262.43s3-9.25,11.29-9.25,9.66,8.95,9.66,8.95"/></g><path class="cls-22" d="M562.71,311c-51.87-14-98.41-26.86-149.92-43.27-1.94,14.82-6.59,28.15-6.84,43.21,9.57,0.61,18.89,4.13,28.12,7.64,42.7,16.21,85.4,33.9,128.1,50.11,0.17-19.51.34-40.49,0.51-60"/><path class="cls-23" d="M408.32,266.13a180.7,180.7,0,0,0-44-15.76c-2-.44-4.67-0.61-5.7,1.21s0.37,3.89,1.67,5.45l6.69,8c2.84,3.38,5.78,7,6.54,11.33s-0.69,8.72.37,12.9c1.43,5.69,7,9.3,12.46,11.49a58.77,58.77,0,0,0,16.39,4,6.12,6.12,0,0,0,3.08-.27,6,6,0,0,0,2.37-2.39,46.59,46.59,0,0,0,7.49-27.56c-0.17-3.54-1.69-8-5.24-8.1"/><g class="cls-24"><g class="cls-25"><path class="cls-9" d="M279-331.15H427.75c34.49,34.7,104.53,122.58,105.55,134.67C535-175.8,581.27,8.66,573,31.05,542.11,115.22,467.62,191.91,459,191.91c-114.76,0-161.21,2.11-180,.63C280.7,10.85,273.95-156.31,279-331.15Z"/><path class="cls-11" d="M281.66-331H137C103.45-296.34,35.33-208.46,34.34-196.37,32.65-175.7-12.32,8.76-4.32,31.15,25.76,115.33,98.21,192,106.61,192c111.61,0,154.84,2,173.08.55C278,10.87,286.58-156.21,281.66-331Z"/><path class="cls-5" d="M572.21-207.32L598.1-46.93A46.24,46.24,0,0,1,598.46-35a46.38,46.38,0,0,1-2.61,11.4A151,151,0,0,1,571.92,6.84q-4.79,4.78-10,9.26c-27.16,24.84-75.29,33.85-104.52,5-1.72-1.8-1.72-7.21,0-10.81,8.59-18,22.78-27.55,36.1-37.85,4.78-3.83,10.94-6.73,15.47-10.81,9.05-8.17,17.19-14.42,25.78-25.23,7-6.72,11.93-11.4,12.84-11.88,5.47-2.87-27.34-88.85-27.34-88.85Z"/><path class="cls-5" d="M-4.23-206.87L-31.33-46.77a44,44,0,0,0-.39,11.89A44.5,44.5,0,0,0-29-23.5,152,152,0,0,0-3.93,6.9q5,4.77,10.46,9.24c28.43,24.79,78.8,33.79,109.38,5,1.8-1.8,1.8-7.2,0-10.79-9-18-23.84-27.5-37.78-37.78-5-3.83-11.45-6.71-16.19-10.79-9.47-8.16-4.26-4.05-20.45-14.84-7.29-6.71-9.84-10.32-10.79-10.79L50.12-164Z"/></g></g><g class="cls-26"><ellipse class="cls-27" cx="358.66" cy="45.64" rx="138.94" ry="14.9" transform="translate(-2.38 64.84) rotate(-10.3)"/><path class="cls-28" d="M303.52,42.42s7.76,6.16,9.13,6.86,12.15-.63,12.64,1.8S312.13,58.67,305.39,58s-20.52-8.41-21.72-9.93,1.71-8.77,1.71-8.77Z"/><path class="cls-28" d="M304.58,55.86c-7.82-1.69-14.49-6.62-20.77-11.77-0.43,1.7-.65,3.34-0.14,4,1.2,1.51,14.63,10.74,21.38,11.41,5.63,0.56,16.33-4,19.41-6.92A28,28,0,0,1,304.58,55.86Z"/><path class="cls-28" d="M433.78,6s8-3.25,9-4.69,4.32-8,5.83-7.68-0.42,8.48-4.57,16.28-14,13.26-14.34,13-6.18-5.09-6.83-8.64S433.78,6,433.78,6Z"/><path class="cls-28" d="M448.65-6.33a1.1,1.1,0,0,0-.87.33c-1.85,13.08-9.09,22.24-19.15,28,0.6,0.53,1,.88,1.11.94,0.35,0.25,11.18-4.87,15.33-12.67S450.15-6,448.65-6.33Z"/><path class="cls-29" d="M349.62-138.91S384.54-99.06,405-55.69,427.86,0.7,435.61,4.76c0,0-5.62,9.85-13.54,11.71a42.32,42.32,0,0,0-4-10.63c-3.18-6.15-35.69-67.93-84.73-103.59,0,0-3,46.79-12.23,79.16S303.2,31.76,303,34.31s2.48,9.22,2.48,9.22-11.35,6.27-21.89-6.11c0,0,6.24-6,8.92-26,5-37.49-6-114-2.72-134.53Z"/><path class="cls-30" d="M302,34.11l-0.52.22a9.52,9.52,0,0,1-2.43.56,10.56,10.56,0,0,1-1.13,0c-0.39,0-.8,0-1.2-0.09s-0.82-.14-1.23-0.22-0.81-.22-1.19-0.37a10.34,10.34,0,0,1-1.11-.47,9.8,9.8,0,0,1-1-.56,7.26,7.26,0,0,1-.82-0.59,7.84,7.84,0,0,1-1.09-1L290,31.16l0.46,0.33c0.29,0.21.71,0.49,1.23,0.79,0.26,0.16.54,0.31,0.85,0.47s0.64,0.29,1,.46,0.7,0.28,1.07.4,0.75,0.23,1.13.34,0.77,0.18,1.16.23,0.77,0.11,1.14.15,0.73,0.06,1.07,0,0.67,0,1,0a13.56,13.56,0,0,0,1.45-.15Z"/><path class="cls-30" d="M301.16,32.65s-0.69-.44-1.67-1.17l-0.79-.59-0.86-.68-1.14-.93L295,27.86l0.22,0,2.36,0.53,0.66,0.15,0.56,0.14L299.88,29l0.95,0.27c0.59,0.17,1.07.33,1.41,0.45l0.53,0.19-0.56,0c-0.36,0-.86-0.09-1.47-0.18l-1-.15-1.08-.19-1.07-.21s0,0,0,0h0s0,0,0,0a0,0,0,0,0,0,0l0.21,0.19,0.43,0.39,0.8,0.75,0.71,0.68C300.62,32,301.16,32.65,301.16,32.65Z"/><path class="cls-30" d="M430.62,2.3s-0.36.39-.9,0.93l-0.43.44-0.48.5-0.5.54-0.51.55-0.5.56-0.48.55-0.45.52-0.4.47-0.61.71-0.24.27L425.24,8a7.42,7.42,0,0,1,.39-0.86c0.09-.18.19-0.36,0.31-0.55s0.24-.39.38-0.59,0.29-.41.45-0.61l0.51-.6,0.55-.56,0.56-.51c0.19-.16.38-0.3,0.56-0.44s0.36-.25.52-0.36A7.48,7.48,0,0,1,430.62,2.3Z"/><path class="cls-30" d="M427.36,2.48a5.46,5.46,0,0,1-.38.75c-0.06.11-.13,0.22-0.21,0.34s-0.16.25-.25,0.37l-0.28.38-0.31.38-0.32.37c-0.11.12-.22,0.23-0.33,0.34l-0.32.31-0.3.26a5.52,5.52,0,0,1-.49.36l-0.2.12L424,6.24a5.52,5.52,0,0,1,.28-0.54c0.06-.11.13-0.22,0.21-0.34s0.16-.24.25-0.37,0.18-.25.29-0.38l0.31-.38,0.33-.36L426,3.54c0.11-.11.22-0.21,0.32-0.3l0.3-.26A5.46,5.46,0,0,1,427.36,2.48Z"/></g></g></g></svg>