<svg id="Layer_1" data-name="Layer 1" xmlns="http://www.w3.org/2000/svg" viewBox="0 0 2614.88 684.23"><defs><style>.cls-1{fill:#f3f3f3;}.cls-2{fill:#444f53;}.cls-3{fill:#56bbd3;}.cls-4{fill:#38a4dd;}.cls-5{fill:#e6ebee;}.cls-6{fill:#e17daf;}.cls-7{fill:#f38f67;}.cls-8{fill:#81cec8;}.cls-9{fill:#e48082;}.cls-10{fill:#f7d8b9;}.cls-11{fill:#f7f8f8;}.cls-12{fill:#2f363a;}.cls-13{fill:#563027;}.cls-14{fill:#eac7a7;}.cls-15{fill:#663c30;}.cls-16{fill:#482834;}.cls-17{fill:#db4e47;}.cls-18{fill:#f7c1a9;}.cls-19{fill:#5b4d52;}.cls-20{fill:#fff;}.cls-21{fill:#d76d47;}.cls-22{fill:#f7a78c;}</style></defs><title>atomo_array</title><path class="cls-1" d="M-0.91,4411.77s-7-67.48,54-112.88c1.68-1.25,43.83-27.84,86.51-27.84,31.43,0,70.25,13.78,81.34,23.49,0,0,66.55,38.6,57.29,117.31L263.42,4441l-40.67,11.32-166.37-.05-40.66-13Z" transform="translate(101.47 -4260.98)"/><path class="cls-2" d="M36.24,4406.12s-5.22-42,40.37-70.18c1.26-.78,5.31-3,6.63-3.75,16.65-9.64,38.36-19.19,58.2-19.19,20.33,0,42.82,8.7,55.43,16.78,0,0,55,27.46,48.08,76.4l-25.86,46.09H65.66Z" transform="translate(101.47 -4260.98)"/><ellipse class="cls-3" cx="188.42" cy="131.69" rx="7.55" ry="10.86"/><ellipse class="cls-3" cx="298.48" cy="133.66" rx="6.57" ry="10.67"/><path class="cls-4" d="M196.87,4276.33v-1.09s-47.4-30.47-110-2.34v4.3C123.4,4275,160.11,4274.93,196.87,4276.33Z" transform="translate(101.47 -4260.98)"/><path class="cls-5" d="M86.91,4277.2v5.6h110v-6.47C160.11,4274.93,123.4,4275,86.91,4277.2Z" transform="translate(101.47 -4260.98)"/><path class="cls-1" d="M132.93,4439.22h130.3c30.21,33.28,91.57,117.57,92.46,129.17,1.52,19.83,42,196.75,34.82,218.22-27.09,80.73-92.34,154.28-99.91,154.28-100.53,0-139.46,1.94-155.89.53C136.18,4767.15,128.5,4606.91,132.93,4439.22Z" transform="translate(101.47 -4260.98)"/><path class="cls-1" d="M135.82,4439.32H16.18c-27.74,33.28-84.07,117.57-84.89,129.17-1.4,19.83-38.59,196.75-32,218.22C-75.81,4867.44-15.89,4941-8.94,4941c92.3,0,128,1.94,143.13.53C132.83,4767.25,139.88,4607,135.82,4439.32Z" transform="translate(101.47 -4260.98)"/><path class="cls-1" d="M664.82,4505.66s-5.74-55.53,44.44-92.89c1.38-1,36.07-22.91,71.19-22.91,25.86,0,57.81,11.34,66.93,19.33,0,0,54.76,31.76,47.14,96.54l-12.18,24L848.87,4539,712,4539l-33.46-10.67Z" transform="translate(101.47 -4260.98)"/><path class="cls-2" d="M695.39,4501s-4.3-34.53,33.22-57.75c1-.64,4.37-2.45,5.46-3.08,13.7-7.93,31.57-15.79,47.9-15.79,16.73,0,35.24,7.16,45.61,13.81,0,0,45.26,22.6,39.57,62.87L845.86,4539H719.6Z" transform="translate(101.47 -4260.98)"/><ellipse class="cls-3" cx="838.59" cy="228.97" rx="6.21" ry="8.94"/><ellipse class="cls-3" cx="929.16" cy="230.59" rx="5.41" ry="8.78"/><path class="cls-6" d="M827.58,4394.2v-0.89s-39-25.07-90.49-1.93v3.54C767.12,4393.09,797.33,4393.05,827.58,4394.2Z" transform="translate(101.47 -4260.98)"/><path class="cls-5" d="M737.09,4394.92v4.61h90.49v-5.32C797.33,4393.05,767.12,4393.09,737.09,4394.92Z" transform="translate(101.47 -4260.98)"/><path class="cls-1" d="M775,4528.25H882.19c24.86,27.39,75.35,96.75,76.09,106.3,1.25,16.32,34.58,161.91,28.65,179.58-22.3,66.43-76,127-82.22,127-82.73,0-114.76,1.59-128.28.43C777.64,4798.12,771.32,4666.25,775,4528.25Z" transform="translate(101.47 -4260.98)"/><path class="cls-1" d="M777.34,4528.33H678.88c-22.83,27.39-69.19,96.75-69.86,106.3-1.15,16.32-31.75,161.91-26.31,179.58,20.47,66.43,69.77,127,75.49,127,76,0,105.37,1.59,117.79.43C774.88,4798.2,780.68,4666.33,777.34,4528.33Z" transform="translate(101.47 -4260.98)"/><path class="cls-1" d="M1217.94,4582.42s-4.73-45.77,36.62-76.55c1.14-.85,29.72-18.88,58.67-18.88,21.31,0,47.64,9.34,55.16,15.93,0,0,45.13,26.18,38.85,79.56l-10,19.76-27.58,7.68-112.83,0-27.58-8.79Z" transform="translate(101.47 -4260.98)"/><path class="cls-2" d="M1243.14,4578.59s-3.54-28.46,27.38-47.59c0.85-.53,3.6-2,4.5-2.54,11.29-6.53,26-13,39.47-13,13.79,0,29,5.9,37.59,11.38,0,0,37.3,18.62,32.61,51.81l-17.54,31.26H1263.09Z" transform="translate(101.47 -4260.98)"/><ellipse class="cls-3" cx="1379" cy="308.49" rx="5.12" ry="7.37"/><ellipse class="cls-3" cx="1453.64" cy="309.83" rx="4.46" ry="7.23"/><path class="cls-7" d="M1352.08,4490.57v-0.74s-32.14-20.66-74.57-1.59v2.91C1302.25,4489.65,1327.15,4489.62,1352.08,4490.57Z" transform="translate(101.47 -4260.98)"/><path class="cls-5" d="M1277.51,4491.16v3.8h74.57v-4.39C1327.15,4489.62,1302.25,4489.65,1277.51,4491.16Z" transform="translate(101.47 -4260.98)"/><path class="cls-1" d="M1308.71,4601h88.37c20.49,22.57,62.1,79.73,62.7,87.6,1,13.45,28.5,133.43,23.61,148-18.37,54.75-62.62,104.63-67.76,104.63-68.17,0-94.58,1.31-105.72.36C1310.92,4823.43,1305.71,4714.76,1308.71,4601Z" transform="translate(101.47 -4260.98)"/><path class="cls-1" d="M1310.67,4601.11h-81.14c-18.81,22.57-57,79.73-57.57,87.6-0.95,13.45-26.17,133.43-21.68,148,16.87,54.75,57.5,104.63,62.21,104.63,62.6,0,86.84,1.31,97.07.36C1308.64,4823.5,1313.43,4714.83,1310.67,4601.11Z" transform="translate(101.47 -4260.98)"/><path class="cls-1" d="M1722.71,4659.18s-3.72-36,28.8-60.21c0.9-.67,23.38-14.85,46.14-14.85,16.76,0,37.47,7.35,43.39,12.53,0,0,35.5,20.59,30.56,62.57l-7.89,15.55-21.69,6-88.74,0-21.69-6.92Z" transform="translate(101.47 -4260.98)"/><path class="cls-2" d="M1742.52,4656.17s-2.78-22.38,21.54-37.43c0.67-.41,2.83-1.59,3.54-2,8.88-5.14,20.46-10.24,31-10.24,10.85,0,22.84,4.64,29.57,9,0,0,29.34,14.65,25.65,40.75l-13.8,24.59h-81.84Z" transform="translate(101.47 -4260.98)"/><ellipse class="cls-3" cx="1871.04" cy="388.02" rx="4.03" ry="5.8"/><ellipse class="cls-3" cx="1929.75" cy="389.07" rx="3.51" ry="5.69"/><path class="cls-8" d="M1828.21,4586.94v-0.58s-25.28-16.25-58.65-1.25v2.29C1789,4586.22,1808.6,4586.19,1828.21,4586.94Z" transform="translate(101.47 -4260.98)"/><path class="cls-5" d="M1769.55,4587.4v3h58.65v-3.45C1808.6,4586.19,1789,4586.22,1769.55,4587.4Z" transform="translate(101.47 -4260.98)"/><path class="cls-1" d="M1794.1,4673.83h69.5c16.11,17.75,48.84,62.71,49.32,68.9,0.81,10.58,22.42,104.95,18.57,116.4-14.45,43.06-49.26,82.3-53.29,82.3-53.62,0-74.39,1-83.15.28C1795.83,4848.75,1791.74,4763.27,1794.1,4673.83Z" transform="translate(101.47 -4260.98)"/><path class="cls-1" d="M1795.64,4673.88h-63.82c-14.8,17.75-44.85,62.71-45.28,68.9-0.75,10.58-20.58,104.95-17.05,116.4,13.27,43.06,45.23,82.3,48.93,82.3,49.23,0,68.3,1,76.35.28C1794,4848.8,1797.81,4763.33,1795.64,4673.88Z" transform="translate(101.47 -4260.98)"/><path class="cls-1" d="M2122,4711.61a57.56,57.56,0,0,1,23.47-49c0.73-.54,19-12.1,37.59-12.1,13.66,0,30.53,6,35.34,10.21,0,0,28.92,16.77,24.89,51l-6.43,12.66-17.67,4.92-72.3,0-17.67-5.63Z" transform="translate(101.47 -4260.98)"/><path class="cls-2" d="M2138.15,4709.15s-2.27-18.23,17.54-30.5c0.55-.34,2.31-1.29,2.88-1.63,7.23-4.19,16.67-8.34,25.29-8.34,8.84,0,18.61,3.78,24.09,7.29,0,0,23.9,11.93,20.89,33.2l-11.24,20h-66.67Z" transform="translate(101.47 -4260.98)"/><ellipse class="cls-3" cx="2261.66" cy="442.33" rx="3.28" ry="4.72"/><ellipse class="cls-3" cx="2309.48" cy="443.18" rx="2.86" ry="4.63"/><path class="cls-9" d="M2208,4652.75v-0.47s-20.6-13.24-47.78-1v1.87C2176,4652.16,2192,4652.14,2208,4652.75Z" transform="translate(101.47 -4260.98)"/><path class="cls-5" d="M2160.17,4653.13v2.43H2208v-2.81C2192,4652.14,2176,4652.16,2160.17,4653.13Z" transform="translate(101.47 -4260.98)"/><path class="cls-1" d="M2180.17,4723.53h56.62c13.13,14.46,39.79,51.09,40.18,56.13,0.66,8.62,18.26,85.5,15.13,94.83-11.77,35.08-40.13,67-43.42,67-43.68,0-60.6.84-67.74,0.23C2181.58,4866,2178.24,4796.4,2180.17,4723.53Z" transform="translate(101.47 -4260.98)"/><path class="cls-1" d="M2181.42,4723.58h-52c-12.05,14.46-36.53,51.09-36.89,56.13-0.61,8.62-16.77,85.5-13.89,94.83,10.81,35.08,36.84,67,39.86,67,40.11,0,55.64.84,62.2,0.23C2180.12,4866.08,2183.19,4796.45,2181.42,4723.58Z" transform="translate(101.47 -4260.98)"/><path class="cls-10" d="M2315.09,4807.36c-11.58-1.52-22.36-7.27-31.56-14-0.86-.63-2.12-1.26-3-0.6a2.17,2.17,0,0,0-.61,1.59c-0.24,2.55-.44,5.25.8,7.53a13.28,13.28,0,0,0,2.38,2.91c6.37,6.38,13.31,14.09,22.62,15.06,1,0.11,2.89-1.51,3.88-1.81a6.69,6.69,0,0,0,3.89-4c0.75-1.73.56-5.07,1.56-6.68" transform="translate(101.47 -4260.98)"/><path class="cls-11" d="M2346.9,4805.12c-9.8,1.49-20.16,4.82-29.76,2.46a4.91,4.91,0,0,0-2-.22,3.65,3.65,0,0,0-1.44.7c-3.92,2.84-5.3,8.07-9.48,10.57a5,5,0,0,0-1.84,1.4c-1,1.69,1.14,3.5,3,4.35a96.57,96.57,0,0,0,34.07,8.32,3.19,3.19,0,0,0,2.67-.67,2.73,2.73,0,0,0,.41-1.86,66.18,66.18,0,0,1,4.4-25" transform="translate(101.47 -4260.98)"/><path class="cls-12" d="M2382.23,4875.82s3.48,39.8-12.16,60l-6-.72s-4.53-24.63-6.74-29.46h-5.11s-7,21.12-8,28.75h-5.91s-22-28.75-11.59-55.5Z" transform="translate(101.47 -4260.98)"/><path class="cls-13" d="M2331.37,4631.54a80.6,80.6,0,0,0-38.57-15c-5.21-.59-10.94-0.56-15.13,2.38-4.61,3.23-6.07,9.36-4.61,14.55s5.37,9.51,9.8,12.94c-13.39-1.56-28.3-2.77-39.08,4.78-5.61,3.93-9.5,10.62-7.93,17s9.94,11,16.11,7.88c-4.24,4.78-8.56,9.69-10.82,15.52s-2.1,12.86,2.11,17.67,13.05,6,17.56,1.47c2.46-2.5,3.48-6.31,6.71-7.88-1,10,6.18,21.73,16.92,21.23,6.17-.29,11.44-4.62,14.26-9.73s3.62-10.94,4.38-16.64c6.81,5.09,17.34,0,21.88-6.9,8.63-13.18,3.66-32.45-10.45-40.56,4.61-5.48,15.15-11.89,16.86-18.67,0.57-2.26-6.3-4.76-7.46-6.81-2.4-4.25-9.36-3.65-13.66-1" transform="translate(101.47 -4260.98)"/><path class="cls-14" d="M2403.72,4710.26c-2.92-13.58-23.37-24.44-24.83-42.09-25.34,14.88-54.32,2.59-81.41-.69,2-7.27,3.11-13,3.11-13,55.89-52.82,155.08,15.18,155.08,15.18s8.8,28-1.24,64.8c-9.93,36.31-33.63,62.92-84.4,63C2401.83,4785.9,2409.4,4741.92,2403.72,4710.26Z" transform="translate(101.47 -4260.98)"/><path class="cls-10" d="M2272.67,4717.94a13.89,13.89,0,1,0,14.32-23.78c4.33-6,8-17.58,10.51-26.69,27.08,3.28,56.07,15.57,81.41.69,1.46,17.65,21.91,28.51,24.83,42.09,5.68,31.67-1.89,75.64-33.68,87.27-0.65,0-1.29,0-2,0-52.1-.58-88.83-24.52-95.13-49.61A60.52,60.52,0,0,1,2272.67,4717.94Z" transform="translate(101.47 -4260.98)"/><path class="cls-15" d="M2359.86,4644.6c-20.69,19.25-56.37,27.21-82.07,10a9.83,9.83,0,0,1-2.85-10.62c1.43-2.65,5.71-5.31,8.56-8,11.42-6.64,24.27-4,35.68-6.64-5.71-6.64-15.7-1.33-21.41-5.31-5.71-5.31-2.85-11.94,1.43-17.25,10-9.29,24.27-8,37.11-6.64,24.27,2.65,41.39,21.23,65.09,23.13a151.86,151.86,0,0,1,15.74,3.66c25.5,7.4,46.24,21,49,36.26,0,0,14.6-10.59,17.89-3.58s-3.77,10.51-11.77,10.51,26.84,3.06,17.42,16.42-19.31-1.31-19.31-1.31,10.26,36-14.83,63.92l-9.65-7.22s-0.47-4.38,2.12-5,13-9.85,6.36-33.93c0,0-2.35-1.78-2.35,13s-0.24,16.1-6.36,17.2-16.72-15.1-21-44.22-5.18-14.89-2.59,3.5-18.13,5.69-22.37-2.19c-1.06-2-2.72-5-4.62-8.56s-4-7.56-6-11.47c-2.79-6.39-7.07-11.7-8.5-18.33-8.56,11.94-30,22.56-45.68,15.92,4.28-6.64,12.85-9.29,17.74-16C2356.47,4648.92,2359.54,4646.29,2359.86,4644.6Z" transform="translate(101.47 -4260.98)"/><ellipse class="cls-16" cx="2478.42" cy="439.52" rx="8.65" ry="8.04"/><path class="cls-16" d="M2296.4,4692.84c2.71,2.94,7.95,2.89,11.7-.1s4.6-7.79,1.89-10.73-7.95-2.89-11.7.1S2293.69,4689.9,2296.4,4692.84Z" transform="translate(101.47 -4260.98)"/><path class="cls-17" d="M2347,4713.8s-9.13,21.58-22.95,20.16-20.85-20.16-20.85-20.16,1.48,23.39,20.36,24.69S2347,4713.8,2347,4713.8Z" transform="translate(101.47 -4260.98)"/><ellipse class="cls-18" cx="2491.43" cy="469.51" rx="17.07" ry="14.51"/><path class="cls-18" d="M2272.67,4717.94a13.89,13.89,0,1,0,14.32-23.78,14.12,14.12,0,0,1-2.07,2.38C2280.16,4700.79,2275.23,4708.13,2272.67,4717.94Z" transform="translate(101.47 -4260.98)"/><path class="cls-19" d="M2313.25,4708.57l0.14-1.35a2.6,2.6,0,0,1-1.6-.91,4.37,4.37,0,0,1-.58-3.56,2.13,2.13,0,0,1,1-1.62c1.33-.76,3.93,0,5.82.62a11.92,11.92,0,0,0,2.46.6c2.51,0.1,3.31-5.41,3.59-8.72l-1.45-.11c-0.38,4.36-1.48,7.48-2,7.48h0a12.13,12.13,0,0,1-2.08-.53c-2.29-.7-5.13-1.57-7-0.48a3.43,3.43,0,0,0-1.64,2.57,5.53,5.53,0,0,0,.88,4.62A4.14,4.14,0,0,0,2313.25,4708.57Z" transform="translate(101.47 -4260.98)"/><path class="cls-10" d="M2372.89,4796.66V4808a23.85,23.85,0,0,1-23.55,0l0.86-11.67Z" transform="translate(101.47 -4260.98)"/><path class="cls-20" d="M2405.45,4854.88s-17.9-28.68-19.25-33.49-6-13.57-11.39-14.23-2.13,3.93-14.73,3-8.7-5.62-13.59-5-8.14,29.74-9.62,42.06a55.92,55.92,0,0,1-5.17,17.29l-9.16,19h63.65l-4.69-16.64S2403.65,4861.22,2405.45,4854.88Z" transform="translate(101.47 -4260.98)"/><path class="cls-14" d="M2445.88,4741.93s22.37,0.22,10.36,28.68-37.91,10.95-36.5,8.1S2416,4740.4,2445.88,4741.93Z" transform="translate(101.47 -4260.98)"/><path class="cls-15" d="M2453,4652.42c11.36-7.72,27.47-8.87,40-2.84s20.75,18.94,20.48,32a12.08,12.08,0,0,1-2,7.17c-1.55,2-4.54,3.33-7,2.36-2.82-1.1-4.5-4.7-7.55-4.45l7.18,19.43c1.51,4.09,2.8,9.21-.51,12.26-2.59,2.39-7,2.18-10.17.44s-5.28-4.65-7.32-7.46l2.37,11.9c1.87,9.4,3.08,20.71-4.69,27a16.66,16.66,0,0,1-16.46,2.07,15.71,15.71,0,0,1-9.46-12.83c-3.86,2-8.87,3.93-12.37,1.42a9.47,9.47,0,0,1-2.51-3c-7.4-12.64-6.82-28-4.07-42.17s7.46-28.12,7.68-42.51" transform="translate(101.47 -4260.98)"/><path class="cls-7" d="M2370.22,4935.32s8.92,9.18,4.88,9.84-10.54-5.2-11.1-10.73Z" transform="translate(101.47 -4260.98)"/><path class="cls-7" d="M2344.17,4933.88s1.31,6.08-6.07,9.07-8-2.88.48-9.07h5.59Z" transform="translate(101.47 -4260.98)"/><path class="cls-21" d="M2383.11,4892.07c3.17,0,3.17,4.54,3,8.51-5.18-3.34-5.77,1.89-7.07,5.24C2378.26,4899.59,2375.4,4893,2383.11,4892.07Z" transform="translate(101.47 -4260.98)"/><path class="cls-21" d="M2363.42,4892.07c4.58,0,4.5,5.35,4.31,10.23a8,8,0,0,0-2.55-.15c-5.41.52-6,4.9-9.56,6.1C2359.79,4902.52,2355.14,4892.07,2363.42,4892.07Z" transform="translate(101.47 -4260.98)"/><path class="cls-21" d="M2345.13,4894.76c3.81,2.43,4.18,8.15,5.26,13.2-6.2-2.39-2.31-10.86-13-4.8l-0.09,0C2338.85,4897.62,2341.46,4890.07,2345.13,4894.76Z" transform="translate(101.47 -4260.98)"/><path class="cls-21" d="M2328.25,4884v11.13c-0.34-1.17-.84-2-1.76-2.06-1.92-.15-2.82,2-3.7,4.13C2323.9,4892.49,2322.56,4886.72,2328.25,4884Z" transform="translate(101.47 -4260.98)"/><path class="cls-21" d="M2310,4881.32c2.29,1.09,1.78,5.74,1.52,9.61a5.23,5.23,0,0,0-5-2.55,6.27,6.27,0,0,1-2.72-.39C2305.94,4883.67,2306.64,4877.09,2310,4881.32Z" transform="translate(101.47 -4260.98)"/><path class="cls-7" d="M2303.64,4871.24c12.29-4.64,16-1,22.77-4.62l1.85,5.3c4.22,6.72,12.66,10.75,21.1,13.44,14.07,1.34,28.13,0,39.39-8.06,1.05-1,.53-3.51-0.38-5.83,2.9,0.58,12,2.07,27.11,1.8,18.64-.34,6.68,10.75,0,11.42s2.81,19.82-4.57,19.15c-4.1-.37-5.38-3.86-6.8-5.9-0.57-6.11-3.2-16.13-6.92-12.58-3.87,2.77-1.75,9.35-1,15.81-2.82,3.92-2,5.75-8.88.31a15.4,15.4,0,0,0-1.25-.9c0.2-4,.2-8.51-3-8.51-7.71.92-4.86,7.52-4.1,13.74-0.46,1.18-1,2.13-1.87,2.38-3,.87-4.51-4.78-9.4-5.89,0.19-4.89.27-10.23-4.31-10.23-8.28,0-3.63,10.46-7.8,16.18a7.42,7.42,0,0,1-4.16,0,7.76,7.76,0,0,1-1.07-.33c-1.07-5-1.44-10.77-5.26-13.2-3.68-4.68-6.28,2.87-7.82,8.45-8.71,4.88-7.84-3.86-9.06-8.06V4884c-5.69,2.72-4.35,8.49-5.46,13.2-1,2.55-2.06,5.06-4.74,3.6-3.21-1.75-4.33-6.77-6.57-9.88,0.27-3.87.77-8.51-1.52-9.61-3.32-4.23-4,2.36-6.24,6.67C2297.67,4885.82,2292,4875.62,2303.64,4871.24Z" transform="translate(101.47 -4260.98)"/><path class="cls-22" d="M2388.74,4877.29c-11.25,8.06-25.32,9.41-39.39,8.06-8.44-2.69-16.88-6.72-21.1-13.44l-1.85-5.3a20.54,20.54,0,0,0,1.85-1.09c8.09-5.38-.35-0.34,10.55,3s31.3,9.07,43.26-1l5.28,3.7s0.34,0.08,1,.22C2389.27,4873.78,2389.79,4876.28,2388.74,4877.29Z" transform="translate(101.47 -4260.98)"/><path class="cls-21" d="M2397.18,4885.35c3.72-3.55,6.35,6.47,6.92,12.58-1.13-1.63-2.35-2.35-5.16.19a18.8,18.8,0,0,0-2.73,3C2395.43,4894.7,2393.31,4888.12,2397.18,4885.35Z" transform="translate(101.47 -4260.98)"/><path class="cls-10" d="M2404.5,4856.58c3.63,8.6,12.57,12,16.58,20.46a1.13,1.13,0,0,1-.56,1.79,8.46,8.46,0,0,1-7.12,0,23.4,23.4,0,0,1-5.93-4.06,79,79,0,0,1-10.18-9.75c-0.33-.4-0.83-0.91-1.14-1.32-0.48-.62-1.6-1.08-1.06-1.32,3.59-1.56,8.05-3.79,9.42-5.78" transform="translate(101.47 -4260.98)"/></svg>