<svg id="Layer_1" data-name="Layer 1" xmlns="http://www.w3.org/2000/svg" viewBox="0 0 1368.53 922.74"><defs><style>.cls-1{fill:#f7d8b9;}.cls-2{fill:#d8d8d8;}.cls-3{fill:#2f363a;}.cls-4{fill:#563027;}.cls-5{fill:#eac7a7;}.cls-6{fill:#663c30;}.cls-7{fill:#482834;}.cls-8{fill:#db4e47;}.cls-9{fill:#f7c1a9;}.cls-10{fill:#5b4d52;}.cls-11{fill:#e8e8e8;}.cls-12{fill:#f38f67;}.cls-13{fill:#d76d47;}.cls-14{fill:#f7a78c;}.cls-15{fill:#e17daf;}.cls-16{opacity:0.4;}.cls-17,.cls-18{fill:#fff;}.cls-18{font-size:121.89px;font-family:Dosis;font-weight:700;}.cls-19{fill:#f3f3f3;}.cls-20{fill:#444f53;}.cls-21{fill:#56bbd3;}.cls-22{fill:#f0f4f7;}.cls-23{fill:#e6ebee;}</style></defs><title>construction</title><path class="cls-1" d="M3501.1,6647.6c21.12-3,40.76-14.27,57.55-27.43,1.58-1.24,3.87-2.48,5.39-1.18a4.45,4.45,0,0,1,1.12,3.12c0.43,5,.81,10.29-1.45,14.77a25.76,25.76,0,0,1-4.34,5.7c-11.62,12.52-24.27,27.64-41.24,29.54-1.88.21-5.27-3-7.07-3.55-3.47-1.13-5.74-4.48-7.1-7.87s-1-9.94-2.85-13.1" transform="translate(-3088.45 -6026.17)"/><path class="cls-2" d="M3443.1,6643.21c17.86,2.93,36.77,9.44,54.27,4.83a8.35,8.35,0,0,1,3.73-.43,6.48,6.48,0,0,1,2.62,1.37c7.15,5.57,9.67,15.83,17.29,20.74,1.23,0.79,2.62,1.48,3.35,2.75,1.89,3.32-2.08,6.86-5.52,8.53a166.07,166.07,0,0,1-62.11,16.32c-1.75.11-3.79,0.06-4.86-1.32a5.67,5.67,0,0,1-.74-3.65,138.6,138.6,0,0,0-8-49.13" transform="translate(-3088.45 -6026.17)"/><path class="cls-3" d="M3378.66,6781.87s-6.35,78.06,22.17,117.75l10.86-1.41s8.25-48.3,12.3-57.78h9.33s12.81,41.42,14.62,56.39h10.77s40.11-56.39,21.14-108.85Z" transform="translate(-3088.45 -6026.17)"/><path class="cls-4" d="M3471.41,6302.77a141.15,141.15,0,0,1,70.33-29.45c9.5-1.16,19.95-1.09,27.59,4.66,8.4,6.33,11.07,18.36,8.41,28.53s-9.79,18.65-17.88,25.38c24.41-3.06,51.6-5.43,71.25,9.37,10.23,7.7,17.32,20.84,14.47,33.32s-18.13,21.6-29.37,15.45c7.73,9.38,15.6,19,19.72,30.45s3.83,25.23-3.85,34.65-23.8,11.83-32,2.88c-4.49-4.9-6.35-12.38-12.24-15.46,1.83,19.52-11.27,42.62-30.86,41.63-11.25-.57-20.86-9.06-26-19.08s-6.6-21.46-8-32.63c-12.41,10-31.61.06-39.9-13.54-15.74-25.84-6.68-63.64,19.06-79.54-8.4-10.76-27.62-23.32-30.74-36.61-1-4.42,11.48-9.33,13.59-13.36,4.37-8.33,17.06-7.15,24.9-2" transform="translate(-3088.45 -6026.17)"/><path class="cls-5" d="M3339.48,6457.15c5.33-26.63,42.61-47.93,45.27-82.55,46.2,29.18,99.05,5.09,148.43-1.35-3.58-14.26-5.68-25.42-5.68-25.42-101.9-103.59-282.77,29.78-282.77,29.78s-16,55,2.27,127.08c18.11,71.21,61.33,123.4,153.88,123.63C3342.93,6605.5,3329.13,6519.26,3339.48,6457.15Z" transform="translate(-3088.45 -6026.17)"/><path class="cls-1" d="M3578.44,6472.22a23.9,23.9,0,0,1-14,4.57c-14,0-25.31-12.23-25.31-27.27a27.6,27.6,0,0,1,13.22-23.94c-7.89-11.76-14.68-34.48-19.15-52.34-49.38,6.44-102.24,30.53-148.43,1.35-2.66,34.62-39.94,55.92-45.27,82.55-10.35,62.11,3.45,148.35,61.41,171.15,1.19,0,2.35,0,3.56,0,95-1.13,162-48.08,173.45-97.3C3583.15,6508.39,3582.36,6488.57,3578.44,6472.22Z" transform="translate(-3088.45 -6026.17)"/><path class="cls-6" d="M3419.45,6328.38c37.72,37.75,102.79,53.37,149.63,19.54a20.24,20.24,0,0,0,5.21-20.82c-2.6-5.21-10.41-10.41-15.62-15.62-20.82-13-44.24-7.81-65.06-13,10.41-13,28.63-2.6,39-10.41,10.41-10.41,5.21-23.42-2.6-33.83-18.22-18.22-44.24-15.62-67.67-13-44.24,5.21-75.47,41.64-118.68,45.37a260.57,260.57,0,0,0-28.69,7.18c-46.5,14.52-84.3,41.19-89.31,71.11,0,0-26.62-20.77-32.63-7s6.87,20.61,21.47,20.61-48.94,6-31.77,32.2,35.2-2.58,35.2-2.58-18.7,70.65,27,125.36l17.6-14.17s0.86-8.59-3.86-9.87-23.61-19.32-11.59-66.55c0,0,4.29-3.49,4.29,25.52s0.43,31.58,11.59,33.73,30.48-29.62,38.21-86.72,9.45-29.19,4.72,6.87,33.06,11.16,40.79-4.29c1.93-3.86,5-9.85,8.43-16.78s7.36-14.83,11-22.5c5.09-12.53,12.9-22.94,15.5-36,15.62,23.42,54.65,44.24,83.28,31.23-7.81-13-23.42-18.22-32.35-31.31C3425.64,6336.87,3420,6331.71,3419.45,6328.38Z" transform="translate(-3088.45 -6026.17)"/><circle class="cls-7" cx="299.85" cy="411.86" r="15.78"/><ellipse class="cls-7" cx="3522.78" cy="6412.37" rx="13.74" ry="16.31" transform="translate(-6726.86 -1112.41) rotate(-49.4)"/><path class="cls-8" d="M3442.93,6464.11s16.65,42.33,41.84,39.54,38-39.54,38-39.54-2.7,45.88-37.12,48.41S3442.93,6464.11,3442.93,6464.11Z" transform="translate(-3088.45 -6026.17)"/><ellipse class="cls-9" cx="276.13" cy="470.66" rx="31.13" ry="28.46"/><path class="cls-9" d="M3578.44,6472.22a23.9,23.9,0,0,1-14,4.57c-14,0-25.31-12.23-25.31-27.27a27.6,27.6,0,0,1,13.22-23.94,27.2,27.2,0,0,0,3.78,4.67C3564.77,6438.6,3573.77,6453,3578.44,6472.22Z" transform="translate(-3088.45 -6026.17)"/><path class="cls-10" d="M3504.45,6453.84l-0.25-2.65a4.64,4.64,0,0,0,2.91-1.79c1.18-1.55,1.53-3.9,1.05-7a4.22,4.22,0,0,0-1.76-3.19c-2.43-1.48-7.16.07-10.62,1.21a20.47,20.47,0,0,1-4.48,1.17c-4.57.2-6-10.61-6.55-17.11l2.65-.21c0.69,8.55,2.7,14.66,3.74,14.66h0a20.85,20.85,0,0,0,3.8-1c4.17-1.37,9.36-3.08,12.84-.95a6.78,6.78,0,0,1,3,5c0.6,3.86.06,6.91-1.61,9.07A7.36,7.36,0,0,1,3504.45,6453.84Z" transform="translate(-3088.45 -6026.17)"/><path class="cls-1" d="M3395.7,6626.61v22.32a40.9,40.9,0,0,0,42.93,0l-1.57-22.88Z" transform="translate(-3088.45 -6026.17)"/><path class="cls-11" d="M3336.33,6740.79s32.64-56.24,35.1-65.69,10.91-26.62,20.77-27.91,3.88,7.72,26.86,5.88,15.86-11,24.78-9.74,14.84,58.33,17.54,82.5a115.62,115.62,0,0,0,9.42,33.92l16.7,37.28H3371.43l8.56-32.63S3339.61,6753.24,3336.33,6740.79Z" transform="translate(-3088.45 -6026.17)"/><path class="cls-5" d="M3262.61,6519.28s-40.79.43-18.89,56.24,69.12,21.47,66.55,15.89S3317.14,6516.27,3262.61,6519.28Z" transform="translate(-3088.45 -6026.17)"/><path class="cls-6" d="M3249.7,6343.73c-20.71-15.14-50.09-17.39-72.86-5.56s-37.83,37.15-37.35,62.8c0.09,4.91.79,10,3.61,14.06s8.28,6.53,12.81,4.63c5.14-2.15,8.21-9.22,13.76-8.72l-13.1,38.11c-2.76,8-5.1,18.06.92,24,4.73,4.69,12.82,4.27,18.54.86s9.63-9.12,13.35-14.64l-4.33,23.35c-3.42,18.43-5.62,40.62,8.55,52.88,8.06,7,20.31,8.51,30,4.06a30.7,30.7,0,0,0,17.25-25.16c7,3.91,16.18,7.71,22.55,2.79a18.36,18.36,0,0,0,4.57-6c13.5-24.79,12.43-54.92,7.43-82.7s-13.6-55.15-14-83.37" transform="translate(-3088.45 -6026.17)"/><path class="cls-12" d="M3400.57,6898.55s-16.27,18-8.89,19.3,19.21-10.19,20.23-21Z" transform="translate(-3088.45 -6026.17)"/><path class="cls-12" d="M3448.06,6895.73s-2.39,11.93,11.06,17.78,14.53-5.64-.87-17.78h-10.19Z" transform="translate(-3088.45 -6026.17)"/><path class="cls-13" d="M3377.06,6813.73c-5.77,0-5.77,8.9-5.41,16.68,9.44-6.55,10.53,3.7,12.89,10.27C3385.91,6828.48,3391.12,6815.54,3377.06,6813.73Z" transform="translate(-3088.45 -6026.17)"/><path class="cls-13" d="M3413,6813.73c-8.35,0-8.21,10.48-7.86,20.07a13.55,13.55,0,0,1,4.66-.3c9.86,1,11,9.6,17.43,12C3419.59,6834.24,3428.07,6813.73,3413,6813.73Z" transform="translate(-3088.45 -6026.17)"/><path class="cls-13" d="M3446.31,6819c-7,4.76-7.63,16-9.59,25.88,11.31-4.68,4.21-21.3,23.69-9.41l0.16,0.09C3457.77,6824.63,3453,6809.82,3446.31,6819Z" transform="translate(-3088.45 -6026.17)"/><path class="cls-13" d="M3477.09,6797.92v21.84c0.62-2.3,1.53-3.9,3.21-4,3.51-.3,5.15,3.91,6.75,8.09C3485,6814.57,3487.47,6803.25,3477.09,6797.92Z" transform="translate(-3088.45 -6026.17)"/><path class="cls-13" d="M3510.43,6792.65c-4.17,2.14-3.25,11.26-2.77,18.84,2.18-3.26,4.93-5.47,9.18-5a10.69,10.69,0,0,0,5-.76C3517.78,6797.27,3516.49,6784.35,3510.43,6792.65Z" transform="translate(-3088.45 -6026.17)"/><path class="cls-12" d="M3522,6772.88c-22.42-9.09-29.11-2.05-41.52-9.07l-3.37,10.39c-7.69,13.18-23.08,21.09-38.47,26.36-25.65,2.64-51.3,0-71.82-15.81-1.92-2-1-6.88.7-11.43-5.3,1.13-21.88,4.06-49.43,3.52-34-.66-12.18,21.09,0,22.4s-5.13,38.88,8.34,37.56c7.48-.73,9.82-7.57,12.4-11.57,1-12,5.83-31.64,12.61-24.67,7.05,5.43,3.2,18.34,1.76,31,5.14,7.69,3.73,11.28,16.19.61a28.21,28.21,0,0,1,2.28-1.77c-0.36-7.78-.36-16.68,5.41-16.68,14.06,1.81,8.85,14.75,7.48,27,0.84,2.32,1.83,4.18,3.42,4.67,5.55,1.71,8.23-9.38,17.15-11.56-0.34-9.59-.49-20.07,7.86-20.07,15.1,0,6.62,20.51,14.22,31.73a12.62,12.62,0,0,0,7.58.08,13.43,13.43,0,0,0,2-.65c2-9.9,2.63-21.12,9.59-25.88,6.7-9.18,11.46,5.62,14.27,16.56,15.88,9.58,14.29-7.57,16.51-15.81v-21.84c10.38,5.33,7.93,16.65,10,25.88,1.91,5,3.76,9.93,8.64,7.06,5.85-3.43,7.9-13.28,12-19.37-0.49-7.58-1.41-16.7,2.77-18.84,6.06-8.3,7.35,4.62,11.37,13.08C3532.86,6801.47,3543.14,6781.46,3522,6772.88Z" transform="translate(-3088.45 -6026.17)"/><path class="cls-14" d="M3366.8,6784.74c20.52,15.81,46.17,18.45,71.82,15.81,15.39-5.27,30.78-13.18,38.47-26.36l3.37-10.39a36.94,36.94,0,0,1-3.37-2.13c-14.75-10.54.64-.66-19.24,5.93s-57.07,17.79-78.87-2l-9.62,7.25s-0.63.17-1.86,0.43C3365.83,6777.86,3364.88,6782.77,3366.8,6784.74Z" transform="translate(-3088.45 -6026.17)"/><path class="cls-13" d="M3351.41,6800.55c-6.78-7-11.57,12.69-12.61,24.67,2.06-3.2,4.28-4.6,9.4.37a36.15,36.15,0,0,1,5,6C3354.61,6818.89,3358.46,6806,3351.41,6800.55Z" transform="translate(-3088.45 -6026.17)"/><path class="cls-1" d="M3338.07,6744.12c-6.63,16.87-22.92,23.54-30.24,40.12a3.06,3.06,0,0,0-.35,2.08,2.77,2.77,0,0,0,1.37,1.43c3.89,2.26,8.89,1.83,13,0s7.5-4.93,10.82-8c6.57-6,13.17-12,18.57-19.13,0.6-.79,1.51-1.78,2.08-2.59,0.87-1.22,2.92-2.13,1.93-2.59-6.55-3.07-14.69-7.43-17.17-11.35" transform="translate(-3088.45 -6026.17)"/><path class="cls-15" d="M4415.8,6225.89l-291.89-185.81a88.93,88.93,0,0,0-88.85-3.85l-306.86,159.88a88.93,88.93,0,0,0-47.76,75l-15,345.68a88.93,88.93,0,0,0,41.09,78.87l291.89,185.81a88.93,88.93,0,0,0,88.85,3.85l306.86-159.88a88.93,88.93,0,0,0,47.76-75l15-345.68A88.93,88.93,0,0,0,4415.8,6225.89Z" transform="translate(-3088.45 -6026.17)"/><g class="cls-16"><path class="cls-17" d="M3861.58,6194.79c-6.67-2.88-14.35.09-20.7,3.61a122.15,122.15,0,0,0-58.37,75.31c-5.39,20.82-4.73,44.21,6.9,62.29,1.17,1.82,2.63,3.7,4.74,4.18,1.85,0.42,3.74-.35,5.4-1.26,10.65-5.84,16.66-17.34,22.51-28a460.37,460.37,0,0,1,40.88-62c5.79-7.41,11.93-14.85,15-23.75s2.25-19.8-4.5-26.34" transform="translate(-3088.45 -6026.17)"/></g><g class="cls-16"><path class="cls-17" d="M3731.62,6376c-2.9,17.59,5.44,36.53,20.38,46.26,1.4,0.91,3,1.78,4.66,1.5s2.71-1.46,3.78-2.59c5.59-5.95,11.53-13.35,9.84-21.33-1-4.91-4.79-8.73-8.38-12.25l-20.78-20.39" transform="translate(-3088.45 -6026.17)"/></g><text class="cls-18" transform="translate(820.93 396.08)">Under<tspan x="-168.99" y="146.27">Construction</tspan></text><path class="cls-19" d="M3170.41,6685a60.21,60.21,0,0,1,35.29-44.6c0.87-.39,22.23-7.93,41.15-3.64,13.93,3.16,29.75,13.17,33.69,18.6,0,0,25.61,23.81,13.59,57.76l-9.49,11.43-19.17.93-73.74-16.76L3175,6698.9Z" transform="translate(-3088.45 -6026.17)"/><path class="cls-20" d="M3187.45,6686.26s1.91-19.12,25-27c0.63-.22,2.65-0.79,3.32-1,8.35-2.6,18.94-4.65,27.73-2.65,9,2,18.11,8.16,22.88,13,0,0,21.62,17.71,13.62,38.7l-16.1,17.83-6.55-1.49L3201.58,6711l-5.74-1.3Z" transform="translate(-3088.45 -6026.17)"/><ellipse class="cls-21" cx="3211.28" cy="6685.4" rx="4.94" ry="3.43" transform="translate(-7107.61 2310.78) rotate(-77.21)"/><ellipse class="cls-21" cx="3259.87" cy="6697.35" rx="4.85" ry="2.99" transform="translate(-7081.43 2367.46) rotate(-77.21)"/><path class="cls-22" d="M3271.71,6644.89l0.11-.48s-17.94-18.27-48.5-12.1l-0.43,1.91C3239.28,6636.9,3255.56,6640.57,3271.71,6644.89Z" transform="translate(-3088.45 -6026.17)"/><path class="cls-23" d="M3222.88,6634.21l-0.56,2.48,48.74,11.06,0.65-2.87C3255.56,6640.57,3239.28,6636.9,3222.88,6634.21Z" transform="translate(-3088.45 -6026.17)"/><path class="cls-19" d="M3227,6710.66l57.76,13.11c10,17.79,28.76,61.33,28,66.56-1.32,8.94-1.17,91.44-6.53,100.23-20.13,33.06-56.46,59.1-59.81,58.33-44.56-10.12-62-13.17-69.15-15.45C3195.42,6856.35,3208.14,6784.55,3227,6710.66Z" transform="translate(-3088.45 -6026.17)"/><path class="cls-19" d="M3228.25,6711l-53-12c-15.64,12-49.1,43.65-50.63,48.71-2.62,8.65-36.9,83.33-36.13,93.51,2.9,38.29,22.06,76.92,25.14,77.62,40.91,9.29,56.56,13.74,63.39,14.64C3193.92,6856.05,3213.17,6785.73,3228.25,6711Z" transform="translate(-3088.45 -6026.17)"/></svg>