<svg xmlns="http://www.w3.org/2000/svg" viewBox="0 0 149.4 186"><defs><style>.cls-1{isolation:isolate;}.cls-2{fill:#f7d8b9;}.cls-13,.cls-3{mix-blend-mode:multiply;}.cls-4{fill:#c480a5;}.cls-5{fill:#2f363a;}.cls-6{fill:#563027;}.cls-7{fill:#eac7a7;}.cls-8{fill:#663c30;}.cls-9{fill:#482834;}.cls-10{fill:#db4e47;}.cls-11{fill:#f7c1a9;}.cls-12{fill:#5b4d52;}.cls-13{fill:#d68ab1;}.cls-14{fill:#f38f67;}.cls-15{fill:#d76d47;}.cls-16{fill:#f7a78c;}</style></defs><title>poppy_pink_shirt</title><g class="cls-1"><g id="Layer_1" data-name="Layer 1"><path class="cls-2" d="M3219.57,3567.28c6.23-.82,12-3.91,17-7.52a1.42,1.42,0,0,1,1.59-.32,1.17,1.17,0,0,1,.33.85,7,7,0,0,1-.43,4,7.14,7.14,0,0,1-1.28,1.56c-3.43,3.43-7.16,7.58-12.16,8.1-0.56.06-1.55-.81-2.09-1a3.6,3.6,0,0,1-2.09-2.16c-0.4-.93-0.3-2.72-0.84-3.59" transform="translate(-3112.96 -3455.38)"/><g class="cls-3"><path class="cls-4" d="M3202.47,3566.07c5.27,0.8,10.84,2.59,16,1.32a2.64,2.64,0,0,1,1.1-.12,2,2,0,0,1,.77.37c2.11,1.53,2.85,4.34,5.1,5.68a2.68,2.68,0,0,1,1,.75c0.56,0.91-.61,1.88-1.63,2.34a51.92,51.92,0,0,1-18.31,4.47,1.72,1.72,0,0,1-1.43-.36,1.46,1.46,0,0,1-.22-1,35.58,35.58,0,0,0-2.36-13.47" transform="translate(-3112.96 -3455.38)"/></g><path class="cls-5" d="M3183.47,3604.08s-1.87,21.4,6.54,32.28l3.2-.39s2.43-13.24,3.63-15.84h2.75s3.78,11.35,4.31,15.46h3.17s11.83-15.46,6.23-29.84Z" transform="translate(-3112.96 -3455.38)"/><path class="cls-6" d="M3210.82,3472.76a43.33,43.33,0,0,1,20.73-8.07c2.8-.32,5.88-0.3,8.13,1.28a7.19,7.19,0,0,1,2.48,7.82,14.1,14.1,0,0,1-5.27,7c7.2-.84,15.21-1.49,21,2.57,3,2.11,5.11,5.71,4.27,9.13s-5.35,5.92-8.66,4.24c2.28,2.57,4.6,5.21,5.82,8.35s1.13,6.92-1.13,9.5-7,3.24-9.44.79c-1.32-1.34-1.87-3.39-3.61-4.24,0.54,5.35-3.32,11.68-9.1,11.41a9.68,9.68,0,0,1-7.66-5.23c-1.51-2.75-1.95-5.88-2.36-8.94-3.66,2.74-9.32,0-11.76-3.71-4.64-7.08-2-17.44,5.62-21.8-2.48-2.95-8.14-6.39-9.06-10-0.31-1.21,3.38-2.56,4-3.66,1.29-2.28,5-2,7.34-.53" transform="translate(-3112.96 -3455.38)"/><path class="cls-7" d="M3171.92,3515.07c1.57-7.3,12.56-13.14,13.35-22.63,13.62,8,29.2,1.39,43.76-.37-1.05-3.91-1.67-7-1.67-7-30-28.39-83.37,8.16-83.37,8.16s-4.73,15.06.67,34.83c5.34,19.52,18.08,33.82,45.37,33.89C3172.94,3555.74,3168.87,3532.1,3171.92,3515.07Z" transform="translate(-3112.96 -3455.38)"/><path class="cls-2" d="M3242.38,3519.2a7.47,7.47,0,1,1-7.7-12.78c-2.33-3.22-4.33-9.45-5.65-14.35-14.56,1.77-30.14,8.37-43.76.37-0.79,9.49-11.78,15.33-13.35,22.63-3.05,17,1,40.66,18.11,46.91h1c28-.31,47.76-13.18,51.14-26.67A32.53,32.53,0,0,0,3242.38,3519.2Z" transform="translate(-3112.96 -3455.38)"/><path class="cls-8" d="M3195.5,3479.78c11.12,10.35,30.31,14.63,44.12,5.35a5.29,5.29,0,0,0,1.53-5.71c-0.77-1.43-3.07-2.85-4.6-4.28-6.14-3.57-13-2.14-19.18-3.57,3.07-3.57,8.44-.71,11.51-2.85,3.07-2.85,1.53-6.42-.77-9.27-5.37-5-13-4.28-20-3.57-13,1.43-22.25,11.41-35,12.44a81.64,81.64,0,0,0-8.46,2c-13.71,4-24.86,11.29-26.33,19.49,0,0-7.85-5.69-9.62-1.93s2,5.65,6.33,5.65-14.43,1.65-9.37,8.83,10.38-.71,10.38-0.71-5.51,19.37,8,34.36l5.19-3.88s0.25-2.35-1.14-2.71-7-5.3-3.42-18.24c0,0,1.27-1,1.27,7s0.13,8.66,3.42,9.24,9-8.12,11.27-23.77,2.78-8,1.39,1.88,9.75,3.06,12-1.18c0.57-1.06,1.46-2.7,2.48-4.6s2.17-4.06,3.25-6.17c1.5-3.44,3.8-6.29,4.57-9.86,4.6,6.42,16.11,12.13,24.55,8.56-2.3-3.57-6.91-5-9.54-8.58C3197.32,3482.1,3195.67,3480.69,3195.5,3479.78Z" transform="translate(-3112.96 -3455.38)"/><ellipse class="cls-9" cx="73.36" cy="54.45" rx="4.65" ry="4.32"/><path class="cls-9" d="M3229.62,3505.71c-1.46,1.58-4.27,1.56-6.29-.05s-2.47-4.19-1-5.77,4.27-1.56,6.29.05S3231.07,3504.13,3229.62,3505.71Z" transform="translate(-3112.96 -3455.38)"/><path class="cls-10" d="M3202.42,3517s4.91,11.6,12.34,10.84S3226,3517,3226,3517s-0.8,12.58-10.94,13.27S3202.42,3517,3202.42,3517Z" transform="translate(-3112.96 -3455.38)"/><ellipse class="cls-11" cx="66.36" cy="70.57" rx="9.18" ry="7.8"/><path class="cls-11" d="M3242.38,3519.2a7.47,7.47,0,1,1-7.7-12.78,7.59,7.59,0,0,0,1.11,1.28A23.59,23.59,0,0,1,3242.38,3519.2Z" transform="translate(-3112.96 -3455.38)"/><path class="cls-12" d="M3220.56,3514.17l-0.08-.73a1.4,1.4,0,0,0,.86-0.49,2.35,2.35,0,0,0,.31-1.91,1.14,1.14,0,0,0-.52-0.87c-0.72-.41-2.11,0-3.13.33a6.41,6.41,0,0,1-1.32.32c-1.35.05-1.78-2.91-1.93-4.69l0.78-.06c0.2,2.34.8,4,1.1,4h0a6.52,6.52,0,0,0,1.12-.29c1.23-.38,2.76-0.84,3.79-0.26a1.84,1.84,0,0,1,.88,1.38,3,3,0,0,1-.47,2.48A2.23,2.23,0,0,1,3220.56,3514.17Z" transform="translate(-3112.96 -3455.38)"/><path class="cls-2" d="M3188.5,3561.52v6.12a12.82,12.82,0,0,0,12.66,0l-0.46-6.27Z" transform="translate(-3112.96 -3455.38)"/><path class="cls-13" d="M3171,3592.82s9.62-15.42,10.35-18,3.22-7.3,6.12-7.65,1.14,2.11,7.92,1.61,4.68-3,7.31-2.67,4.38,16,5.17,22.61a30.06,30.06,0,0,0,2.78,9.3l4.92,10.22h-34.22l2.52-8.94S3172,3596.23,3171,3592.82Z" transform="translate(-3112.96 -3455.38)"/><path class="cls-7" d="M3149.26,3532.1s-12,.12-5.57,15.42,20.38,5.88,19.62,4.35S3165.34,3531.28,3149.26,3532.1Z" transform="translate(-3112.96 -3455.38)"/><path class="cls-8" d="M3145.45,3484a22.23,22.23,0,0,0-21.48-1.53c-6.71,3.24-11.15,10.18-11,17.21a6.49,6.49,0,0,0,1.06,3.85,3.44,3.44,0,0,0,3.78,1.27c1.52-.59,2.42-2.53,4.06-2.39l-3.86,10.45c-0.81,2.2-1.5,5,.27,6.59,1.39,1.29,3.78,1.17,5.46.23a12.91,12.91,0,0,0,3.94-4l-1.28,6.4c-1,5.05-1.66,11.13,2.52,14.5a9,9,0,0,0,8.85,1.11,8.44,8.44,0,0,0,5.09-6.9c2.07,1.07,4.77,2.11,6.65.77a5.09,5.09,0,0,0,1.35-1.64c4-6.79,3.67-15.05,2.19-22.67s-4-15.12-4.13-22.85" transform="translate(-3112.96 -3455.38)"/><path class="cls-14" d="M3189.93,3636.06s-4.8,4.93-2.62,5.29,5.66-2.79,6-5.77Z" transform="translate(-3112.96 -3455.38)"/><path class="cls-14" d="M3203.94,3635.29s-0.7,3.27,3.26,4.87,4.28-1.55-.26-4.87h-3Z" transform="translate(-3112.96 -3455.38)"/><path class="cls-15" d="M3183,3612.81c-1.7,0-1.7,2.44-1.6,4.57,2.78-1.8,3.1,1,3.8,2.82C3185.61,3616.85,3187.15,3613.31,3183,3612.81Z" transform="translate(-3112.96 -3455.38)"/><path class="cls-15" d="M3193.59,3612.81c-2.46,0-2.42,2.87-2.32,5.5a4.29,4.29,0,0,1,1.37-.08c2.91,0.28,3.25,2.63,5.14,3.28C3195.54,3618.43,3198,3612.81,3193.59,3612.81Z" transform="translate(-3112.96 -3455.38)"/><path class="cls-15" d="M3203.42,3614.26c-2.05,1.31-2.25,4.38-2.83,7.1,3.33-1.28,1.24-5.84,7-2.58l0,0C3206.8,3615.8,3205.4,3611.74,3203.42,3614.26Z" transform="translate(-3112.96 -3455.38)"/><path class="cls-15" d="M3212.49,3608.48v6a1.24,1.24,0,0,1,.95-1.11c1-.08,1.52,1.07,2,2.22C3214.83,3613,3215.55,3609.94,3212.49,3608.48Z" transform="translate(-3112.96 -3455.38)"/><path class="cls-15" d="M3222.32,3607c-1.23.59-1,3.09-.82,5.17a2.81,2.81,0,0,1,2.71-1.37,3.37,3.37,0,0,0,1.46-.21C3224.49,3608.3,3224.11,3604.76,3222.32,3607Z" transform="translate(-3112.96 -3455.38)"/><path class="cls-14" d="M3225.73,3601.61c-6.61-2.49-8.58-.56-12.24-2.49l-1,2.85c-2.27,3.61-6.81,5.78-11.34,7.22-7.56.72-15.12,0-21.17-4.33-0.56-.54-0.29-1.88.21-3.13a71.28,71.28,0,0,1-14.57,1c-10-.18-3.59,5.78,0,6.14s-1.51,10.66,2.46,10.29c2.21-.2,2.89-2.07,3.65-3.17,0.31-3.28,1.72-8.67,3.72-6.76,2.08,1.49.94,5,.52,8.5,1.51,2.11,1.1,3.09,4.77.17a8.28,8.28,0,0,1,.67-0.48c-0.11-2.13-.11-4.57,1.6-4.57,4.15,0.49,2.61,4,2.21,7.39a1.89,1.89,0,0,0,1,1.28c1.64,0.47,2.43-2.57,5.06-3.17-0.1-2.63-.15-5.5,2.32-5.5,4.45,0,2,5.62,4.19,8.7a4,4,0,0,0,2.23,0,4.17,4.17,0,0,0,.58-0.18c0.58-2.71.78-5.79,2.83-7.1,2-2.52,3.38,1.54,4.21,4.54,4.68,2.63,4.21-2.08,4.87-4.33v-6c3.06,1.46,2.34,4.56,2.93,7.09,0.56,1.37,1.11,2.72,2.55,1.94,1.72-.94,2.33-3.64,3.53-5.31-0.14-2.08-.41-4.58.82-5.17,1.79-2.27,2.17,1.27,3.35,3.58C3228.94,3609.45,3232,3604,3225.73,3601.61Z" transform="translate(-3112.96 -3455.38)"/><path class="cls-16" d="M3180,3604.87c6,4.33,13.61,5.06,21.17,4.33,4.54-1.44,9.07-3.61,11.34-7.22l1-2.85a11,11,0,0,1-1-.58c-4.35-2.89.19-.18-5.67,1.63s-16.83,4.88-23.25-.54l-2.84,2-0.55.12C3179.69,3603,3179.41,3604.33,3180,3604.87Z" transform="translate(-3112.96 -3455.38)"/><path class="cls-15" d="M3175.44,3609.2c-2-1.91-3.41,3.48-3.72,6.76,0.61-.88,1.26-1.26,2.77.1a10.11,10.11,0,0,1,1.47,1.64C3176.38,3614.23,3177.52,3610.69,3175.44,3609.2Z" transform="translate(-3112.96 -3455.38)"/><path class="cls-2" d="M3171.51,3593.73c-2,4.62-6.76,6.45-8.92,11a0.61,0.61,0,0,0,.3,1,4.55,4.55,0,0,0,3.83,0,12.58,12.58,0,0,0,3.19-2.18,42.49,42.49,0,0,0,5.47-5.24c0.18-.22.44-0.49,0.61-0.71s0.86-.58.57-0.71c-1.93-.84-4.33-2-5.06-3.11" transform="translate(-3112.96 -3455.38)"/></g></g></svg>