<?xml version="1.0" standalone="no"?>
<!DOCTYPE svg PUBLIC "-//W3C//DTD SVG 20010904//EN"
 "http://www.w3.org/TR/2001/REC-SVG-20010904/DTD/svg10.dtd">
<svg version="1.0" xmlns="http://www.w3.org/2000/svg"
 width="532.000000pt" height="532.000000pt" viewBox="0 0 532.000000 532.000000"
 preserveAspectRatio="xMidYMid meet">
<metadata>
Created by potrace 1.11, written by Peter Selinger 2001-2013
</metadata>
<g transform="translate(0.000000,532.000000) scale(0.100000,-0.100000)"
fill="#000000" stroke="none">
<path d="M2695 5291 c-33 -10 -104 -39 -157 -64 -53 -26 -125 -60 -160 -76
-35 -16 -115 -53 -178 -84 -63 -30 -140 -66 -170 -80 -75 -34 -206 -95 -322
-151 -53 -25 -125 -59 -160 -75 -35 -16 -112 -52 -173 -81 -60 -29 -141 -67
-180 -85 -136 -63 -231 -108 -345 -162 -63 -30 -135 -64 -160 -76 -121 -57
-230 -175 -272 -295 -29 -81 -34 -109 -43 -232 -3 -47 -8 -101 -10 -120 -2
-19 -6 -71 -10 -115 -3 -44 -8 -100 -11 -125 -2 -25 -6 -72 -9 -105 -6 -77
-16 -200 -20 -245 -2 -19 -6 -75 -10 -125 -3 -49 -8 -101 -10 -115 -2 -14 -7
-68 -10 -120 -4 -52 -8 -106 -10 -120 -2 -14 -7 -68 -10 -120 -4 -52 -8 -106
-10 -120 -2 -14 -6 -61 -10 -105 -12 -151 -24 -295 -31 -380 -21 -238 -2 -342
83 -467 52 -75 94 -111 303 -256 102 -70 208 -144 235 -163 28 -19 79 -55 115
-80 157 -110 208 -145 255 -178 62 -43 361 -250 395 -273 14 -10 43 -30 65
-46 85 -60 142 -100 205 -142 36 -24 67 -47 70 -50 3 -3 25 -19 50 -36 25 -17
81 -56 125 -86 144 -99 210 -125 340 -134 68 -5 106 -2 155 10 55 14 329 140
1235 566 150 71 414 195 505 237 297 138 375 181 433 239 63 64 104 128 136
214 22 62 28 107 46 340 4 41 8 98 11 125 2 28 7 77 9 110 13 160 16 193 20
230 3 22 7 78 10 125 3 47 7 99 9 115 3 27 7 72 21 247 6 69 12 139 30 348 3
30 7 84 10 120 3 36 7 88 10 115 2 28 7 86 10 130 3 44 9 100 12 125 3 25 6
87 7 139 5 159 -48 294 -161 409 -23 23 -117 91 -325 235 -146 101 -569 396
-630 439 -26 18 -92 64 -145 101 -54 37 -240 167 -413 287 -173 121 -337 231
-365 245 -111 56 -272 71 -390 36z"/>
</g>
</svg>
