<?xml version="1.0" standalone="no"?>
<!DOCTYPE svg PUBLIC "-//W3C//DTD SVG 20010904//EN"
 "http://www.w3.org/TR/2001/REC-SVG-20010904/DTD/svg10.dtd">
<svg version="1.0" xmlns="http://www.w3.org/2000/svg"
 width="260.000000pt" height="260.000000pt" viewBox="0 0 260.000000 260.000000"
 preserveAspectRatio="xMidYMid meet">
<metadata>
Created by potrace 1.11, written by Peter Selinger 2001-2013
</metadata>
<g transform="translate(0.000000,260.000000) scale(0.100000,-0.100000)"
fill="#000000" stroke="none">
<path d="M1310 2591 c-23 -7 -136 -60 -425 -196 -55 -26 -131 -62 -170 -80
-38 -18 -119 -56 -180 -85 -60 -29 -138 -65 -172 -81 -124 -57 -176 -131 -188
-269 -3 -41 -8 -95 -10 -120 -2 -25 -7 -81 -10 -125 -4 -44 -8 -91 -10 -105
-2 -14 -6 -65 -10 -115 -4 -49 -8 -106 -10 -125 -2 -19 -7 -73 -11 -120 -3
-47 -8 -101 -9 -120 -20 -231 -16 -271 35 -345 16 -23 54 -59 87 -81 32 -22
209 -145 393 -274 377 -262 464 -321 500 -337 14 -6 57 -10 95 -8 75 2 60 -4
358 139 77 36 140 66 142 66 1 0 67 31 146 68 79 38 200 95 269 127 160 75
193 96 230 147 46 63 48 76 75 403 3 39 8 90 10 115 2 25 7 81 10 125 4 44 8
96 10 115 2 19 7 78 10 130 4 52 9 103 11 113 1 9 6 63 9 120 10 170 -18 225
-175 333 -52 36 -129 89 -170 118 -131 92 -533 371 -595 413 -33 22 -73 45
-90 50 -38 12 -123 14 -155 4z"/>
</g>
</svg>
